<?xml version="1.0" encoding="utf-8"?>
<!-- Generator: Adobe Illustrator 19.0.0, SVG Export Plug-In . SVG Version: 6.00 Build 0)  -->
<svg version="1.0" id="Layer_1" xmlns="http://www.w3.org/2000/svg" xmlns:xlink="http://www.w3.org/1999/xlink" x="0px" y="0px"
	 width="1400px" height="980px" viewBox="0 0 1400 980" enable-background="new 0 0 1400 980" xml:space="preserve">
<g id="XMLID_1632_">
	
		<radialGradient id="XMLID_4_" cx="674.4882" cy="434" r="767.494" fx="741.2488" fy="-186.0981" gradientTransform="matrix(1 0 0 0.6736 0 141.6485)" gradientUnits="userSpaceOnUse">
		<stop  offset="1.614318e-02" style="stop-color:#FBB040"/>
		<stop  offset="2.950981e-02" style="stop-color:#EDA552"/>
		<stop  offset="6.949288e-02" style="stop-color:#CF8A70"/>
		<stop  offset="0.1101" style="stop-color:#B77681"/>
		<stop  offset="0.1507" style="stop-color:#A4658C"/>
		<stop  offset="0.1911" style="stop-color:#965892"/>
		<stop  offset="0.2315" style="stop-color:#8C4F97"/>
		<stop  offset="0.2717" style="stop-color:#86499A"/>
		<stop  offset="0.3116" style="stop-color:#84479C"/>
		<stop  offset="0.4141" style="stop-color:#5F4587"/>
		<stop  offset="0.5223" style="stop-color:#403C72"/>
		<stop  offset="0.629" style="stop-color:#26325F"/>
		<stop  offset="0.732" style="stop-color:#0F274F"/>
		<stop  offset="0.8303" style="stop-color:#001C41"/>
		<stop  offset="0.9218" style="stop-color:#001337"/>
		<stop  offset="1" style="stop-color:#000F33"/>
	</radialGradient>
	<rect id="XMLID_2_" fill="url(#XMLID_4_)" width="1400" height="980"/>
	<g id="XMLID_126_" opacity="0.81">
		<linearGradient id="XMLID_5_" gradientUnits="userSpaceOnUse" x1="952.3185" y1="817.0726" x2="910.3185" y2="-376.9274">
			<stop  offset="0" style="stop-color:#010101"/>
			<stop  offset="1" style="stop-color:#010101;stop-opacity:0"/>
		</linearGradient>
		<path id="XMLID_279_" fill="url(#XMLID_5_)" d="M730,236.5c3.4-0.2,7.9,0.4,12.4,0.9c2.7,0.3,5,1.6,7.2,2.8
			c4.6,2.4,9.6,3.3,14.5,4.4c3.6,0.8,7,1.8,10.3,3.3c3.2,1.5,6.9,1.2,10.1,2.7c0.6,0.3,1.3-0.2,1.9-0.6c0.8-0.6,1.6-1.3,2.4-1.9
			c2.8-2.3,5.5-2.5,8.3-0.3c2,1.6,4,1.9,6.3,1.4c3.6-0.8,7.3-1.5,10.6-3.4c2.9-1.7,6.1-0.9,9.3-0.6c5,0.5,9.9,0.3,14.3-2.6
			c1.8-1.1,3.8-1.9,6.1-1.8c1.4,0.1,2.7,0,4.1,0c2.7,0.1,4.8-0.9,6.3-3.2c0.6-1,1.2-2,2.1-2.6c1.3-0.9,1.8-1.9,1.6-3.4
			c-0.2-1.5,0.7-2.3,2-2.7c3.6-1.1,7.2-1.4,10.4,0.9c2.1,1.5,4.2,1.8,6.4,1.2c2.6-0.8,5.3-0.8,8-1.1c2.6-0.3,5.1-0.6,6.7-3.2
			c0.6-1.1,2-1.3,3.3-1.4c4-0.3,7.5-1.6,11.1-3.6c3.4-1.9,7.1-3.8,11.3-4.1c3-0.2,6-1,9-1.6c1.8-0.3,3.5-0.7,5.3-0.6
			c2.2,0.1,4.1-1.1,6-2.1c4.2-2.4,8.6-3.3,13.3-1.4c1.5,0.6,3,1,4.6,1c1.9,0,3.8,0.3,5.6,1.1c2.1,0.8,4.3,0.4,6.4,0.5
			c3.6,0.2,7.2,0.5,10.6,1.9c2.7,1.2,4.8,2.9,6.3,5.5c1.5,2.6,3.8,3.8,6.7,3.9c2.4,0.1,4.7,0.1,7.1,0.7c1.1,0.3,2.3,0.3,3.4,0
			c5.1-1.7,10.3-1.3,15.5-1.2c6.9,0.1,13.7,1.5,20.5,2c0.5,0,0.9,0.2,1.3,0.1c4.3-0.5,7.9,1.4,11.4,3.6c2.9,1.9,6.2,2.9,9.5,3.4
			c3.2,0.5,5.8-1.4,8.7-2.3c0.5-0.2,1-0.5,1.5-0.8c3.2-1.8,6.6-2.5,10.1-1.8c4,0.8,8.1,0.6,12.1,1.1c4.2,0.6,8.6,0.3,12.7,1.5
			c4.2,1.2,8.7,1.6,12.7,3.5c3.1,1.5,6.4,1.4,9.7,0.9c5.1-0.8,10.1-0.4,15.1,0.9c2.7,0.7,5.4,1.1,7.8,2.9c1.7,1.3,4.3,1.3,6.6,1.3
			c5.1,0,10.2,0.1,15.3,0c1.1,0,2.3,0.1,3.4-0.3c6.1-1.8,12.3-1.4,18.5-0.5c7,1,14.2,1.1,21.1,2.8c3.6,0.9,7.3,1.3,11,1.9
			c5.4,0.8,10.6,2.3,15.5,4.6c4.8,2.3,10,2.7,15.1,3.5c3.6,0.6,6.9,2.1,10.1,3.7c0.9,0.4,1.7,1.2,2.3,2c1.2,1.4,1.5,3,0.8,4.7
			c-0.7,1.8-2.2,2-3.9,2c-1.2,0-2.5,0.1-3.7-0.4c-3.9-1.8-8.3-2.2-12.2-4c-2.5-1.1-4.7,0.1-6.5,1.6c-1.3,1.1-1.1,2.4,0.4,3.4
			c1.9,1.2,3.9,2.3,6.2,2.6c1.4,0.2,2.6,0.6,3.7,1.6c1.3,1.3,1.2,2.2-0.5,3.1c-0.8,0.4-1.7,0.7-2.6,0.6c-3.3-0.2-5.9,1.4-8.1,3.7
			c-1.1,1.1-2.1,2.3-3.2,3.5c-2.2,2.5-4.9,3.7-8.2,2.7c-1.4-0.4-2.6-0.2-3.9,0.5c-1.1,0.6-2.3,1-3.4,1.5c-2.4,1.1-2.9,3-1.5,5.2
			c0.5,0.8,1.2,1.4,1.7,2.1c2.2,2.8,5,5.2,6,8.9c0.1,0.5,0.6,1,1,1.3c2.4,1.7,2.7,4.2,2.9,6.9c0.4,4.8-1.3,9.1-2.2,13.7
			c-0.4,1.8-1.7,2.3-3.3,1.3c-0.7-0.4-1.2-1.1-1.8-1.6c-5.4-4-9.9-8.9-14.7-13.4c-3-2.9-6.1-5.7-8.7-9c-3.1-3.9-3.3-7.8-1-11.9
			c0.9-1.6,1.4-3.3,1.8-5.1c0.5-2.4-0.2-3.3-2.7-3.5c-1.4-0.1-2.9,0-4.3-0.5c-1.3-0.5-2.5-0.9-3.5-1.9c-2-1.9-4.5-2-7-1.6
			c-2.8,0.5-3.7,3.1-2.1,5.5c0.6,0.9,1.5,1.7,2,2.7c1,1.7,0.6,3.1-1.3,3.4c-3.9,0.6-8,1.8-11.7-0.8c-0.5-0.4-1.3-0.6-1.9-0.7
			c-4.5-0.1-9-0.5-13.5,0.4c-1.3,0.3-2.7,0.5-4,0c-1.4-0.5-2.9-0.3-4.4-0.3c-3.7,0-6.1,1.7-7.4,5.2c-1.3,3.4-2.7,6.6-3.3,10.2
			c-0.3,1.7-0.1,2.8,1.5,3.6c2,1,4,2.2,5.9,3.3c0.7,0.4,1.4,0.8,2.2,0.6c5.3-1.3,10.5,0.9,15.8-0.2c1.3-0.3,2.3,0.7,3.2,1.6
			c1.8,2.1,3.4,4.5,6.1,5.7c0.5,0.2,1,1,1.3,1.5c0.9,1.6,2.1,2.9,3.4,4.2c0.8,0.7,1.5,1.4,2,2.3c1.7,2.7,3.5,5.3,6.7,6.4
			c0.8,0.3,1.7,1.1,1.9,1.8c0.8,2.3,2.5,4.1,3.1,6.4c0.5,2,1.4,3.8,2.6,5.5c1.3,1.9,1.1,3.2-0.2,4.2c-1.4,1.1-3.2,1-4.7-0.2
			c-0.4-0.4-0.8-0.8-1.1-1.3c-1.3-2.8-3.6-5-4.7-7.9c-0.3-0.9-1-1.5-1.7-2.1c-2.7-2.2-4.4-1.7-5.6,1.5c-0.9,2.3-1.4,4.8-1.4,7.3
			c0,2.1-0.4,4-1.2,5.9c-1.2,2.5-1.5,5.2-2.1,7.8c-1.1,4.5-2.8,5.9-7.3,5.9c-3.6,0-4.7,0.8-6,4.2c-0.2,0.6-0.7,1.3-0.7,1.9
			c-0.2,2.6-1.6,4.3-3.4,6c-1.9,1.8-1.8,2.7,0,4.4c0.2,0.2,0.5,0.5,0.8,0.6c3.2,1.7,5.4,4.4,7.8,6.9c2.5,2.8,4.2,5.9,5.3,9.4
			c0.8,2.3,0.4,3.1-1.7,4c-1.9,0.8-3.7,1.6-5.6,2.3c-2.5,0.9-3.3,0.5-4.5-2c-0.4-0.8-0.9-1.6-1-2.5c-0.9-5.4-4.6-8.7-8.7-11.6
			c-2-1.4-3.4-2.7-4-5.4c-0.8-3.6-5.2-5.8-9.6-2.9c-0.8,0.6-1.4,1.4-2.2,2.1c-1.6,1.3-2.5,1.1-3.4-0.6c-0.6-1.1-1.1-2.1-1.1-3.5
			c0-2-2.2-3-3.9-2.1c-2,1.1-3.5,4-3,6.3c0.5,2.5,2.2,4.1,4,5.7c0.9,0.8,2.2,0.7,3.2,0.2c1.5-0.7,2.8-0.5,4.2,0.2
			c1.5,0.7,3,1,4.6,0.9c1.2,0,2.4,0.4,2.5,1.8c0.1,1.4-0.9,2-2.2,2.1c-2.9,0.2-3.9,2.4-5.1,4.4c-0.6,1-0.5,1.9,0.1,2.9
			c0.5,0.7,1,1.5,1.6,2.2c2.6,2.5,4.6,5.6,6.4,8.7c0.5,0.9,1,1.9,1.7,2.5c4.5,3.1,5.7,8.1,6.8,12.9c0.6,2.8,0.3,5.9-0.7,8.9
			c-1.3,3.8-3.2,7.5-3.6,11.6c0,0.4-0.1,1-0.4,1.3c-2.3,3.1-4,6.5-6.9,9.1c-2.6,2.4-5.7,3.8-8.8,5.5c-2.5,1.4-4.8,3.3-7.2,4.8
			c-2.7,1.7-5.3,3.4-8.2,4.8c-3.5,1.8-6.7,1.9-9.7-0.9c-0.2-0.2-0.4-0.3-0.6-0.4c-1.5-0.7-2.6-2.8-4.4-1.9c-2,1-4,2.1-5,4.4
			c-0.4,0.9-0.8,1.9-1.3,2.8c-1.1,2.3-0.6,4.5,1,6.3c2.6,3,5.3,5.9,8,8.7c1.1,1.1,2,2.5,3.1,3.6c4,4.1,4.7,9.7,6,14.9
			c1.3,5.2-0.7,9-5.3,11.7c-3.6,2-5.6,5.5-8.6,8c-0.7,0.6-1.1,1.4-1.8,2c-1.5,1-2.3,0.9-3.5-0.5c-0.8-1.1-1.7-2.2-2.3-3.4
			c-1.6-3.2-4.4-5.6-5.7-9.1c-0.9-2.5-3.1-4.2-5-5.9c-1.8-1.7-5.5-1.1-6.9,1c-2.1,3.2-3.2,6.7-3.4,10.5c-0.1,1.2,0.2,2.3,1.6,2.7
			c1.4,0.4,1.9,1.4,2.3,2.7c1.1,4,3.3,7.3,6.9,9.7c3.6,2.5,6.1,6,8.2,9.8c0.5,0.9,0.8,1.9,0.8,2.9c-0.1,3.7,0.8,7.1,2.3,10.5
			c0.6,1.3,1.8,3,0.1,4.3c-1.6,1.3-2.9-0.2-4.3-0.9c-7-3.2-9.9-9.5-12.6-16.1c-2.1-5.2-4.9-9.9-8.8-13.9c-1.6-1.6-1.8-3.7-1.4-5.3
			c1-4,0-8,0.6-12c0.7-5-1-9.8-3.5-14.3c-1-1.8-1.8-3.6-2.4-5.6c-1.5-5.1-4.4-5.1-8.1-2.9c-0.8,0.4-1.4,1.8-2.2,1.3
			c-1.5-0.9-3.3-0.7-4.6-1.8c-0.6-0.5-0.7-1.2-0.5-1.9c1.4-4.8-1.3-8.7-2.9-12.9c-1.1-2.8-3.8-4-5.5-6.3c-1.6-2.1-3.2-4-4.5-6.3
			c-1.6-3-2.4-3.1-5.7-2.5c-2.4,0.4-4.8,1.2-7.3,1.2c-1.9,0-3.7,0.9-5.2,2.2c-0.6,0.5-1.3,1.1-1.2,1.9c0.2,3-1.9,4.8-4,5.8
			c-4.2,1.9-5.9,6-8.9,9.1c-0.2,0.2-0.3,0.7-0.5,0.9c-3.6,2.3-5.1,6.5-8.7,8.8c-2.9,1.8-4.2,4.3-3.2,7.8c1.4,4.6-0.5,9.2-0.8,13.7
			c0,0.6-0.3,1.1-0.3,1.7c0.6,5.2-2.4,8.5-5.9,11.6c-0.9,0.7-1.5,1.6-2.4,2.4c-1.7,1.5-3.2,1.4-4.7-0.2c-0.7-0.7-1.5-1.5-1.8-2.4
			c-2.2-6.8-6.2-12.8-8.5-19.5c-0.9-2.7-1.6-5.5-3.3-7.8c-1-1.4-1.8-2.8-2.4-4.4c-2.1-5.8-5-11.4-5.3-17.8c-0.1-2.1-1.1-4.1-1.2-6.3
			c-0.2-2.2-2.2-3.2-4.5-2.7c-0.7,0.2-1.3,0.3-2,0.6c-1.5,0.6-2.7,0.1-3.6-1.1c-1.4-1.8-3-3.4-4.9-4.6c-1.1-0.7-1.7-1.8-2-3
			c-0.6-2.3-2.1-4-4-5.3c-2.7-1.8-4.7-4.2-6.7-6.6c-1-1.2-2.1-2-3.8-1.9c-1.7,0.1-3.4,0-5.1,0.4c-6.1,1.3-12.3,1.5-18.5,0.2
			c-3.3-0.7-6.7-1.2-10-1.9c-2-0.5-3.3-1.4-3.9-3.3c-0.2-0.5-0.4-1.1-0.6-1.6c-1-2-1.5-2.2-3.4-1.2c-1.3,0.7-2.8,0.9-4.1,1.5
			c-0.8,0.3-1.6,0.5-2.3,0.1c-3-1.5-6.4-2-9.3-4c-3.4-2.4-6.9-4.3-8-8.9c-0.6-2.4-2.6-4.4-5.6-4.8c-3.1-0.3-5.3,2.1-4.2,5
			c1.7,4.6,4.8,8.2,9.2,10.3c1.9,0.9,3.3,2.4,4.7,3.8c1.8,1.7,2,4.1,1.5,6.3c-0.4,1.9,0.2,2.5,1.9,2.7c1.9,0.2,3.8,0.3,5.8,0.1
			c2.2-0.2,3.8-1.1,5.1-2.9c2.9-3.9,6-3.7,8.8,0.4c0.6,0.9,1.4,1.8,2,2.7c0.8,1.2,1.8,2,3.4,1.8c2-0.3,3.4,0.8,4.6,2.3
			c1.1,1.4,2.2,2.9,3.3,4.3c0.8,1,0.7,2,0.3,3.2c-0.8,3-2.5,5.5-4.2,8.1c-0.6,1-1.4,1.9-1.6,3c-1,5.4-5.3,7.7-9.3,10.5
			c-3.5,2.5-7.4,4.2-11.2,6.1c-1.2,0.6-2.4,1.5-3,2.7c-1.6,3.2-4.4,4.3-7.6,5c-1,0.2-2,0.5-2.9,1c-3.7,2.5-8.1,3.4-12,5.4
			c-2.7,1.4-5.8,1.8-8.4,3.5c-1.2,0.8-2.4,0.1-3.4-0.7c-1.7-1.4-3.2-2.9-3.7-5.1c-0.4-1.7-1.2-3.2-2.2-4.5c-1.9-2.5-2.3-5.6-3.3-8.5
			c-0.8-2.3-1.7-4.4-3.3-6.2c-0.5-0.6-1-1.3-1.2-2c-1-4-3.5-7-6.9-9.3c-2.4-1.6-3.2-4-3.9-6.5c-0.6-2.5-0.8-5.1-2.1-7.5
			c-1-1.8-2-3.7-3.6-4.9c-2-1.4-3.1-3.2-3.9-5.4c-0.6-1.6-1.6-3-2.7-4.3c-3.2-4-5.7-8.4-7.6-13.1c-1.2-2.9-2.7-5.7-3.5-8.8
			c-0.5-2.1-0.7-4.2,0.6-6.2c0.8-1.3,0.8-2.8,1.3-4.2c1.1-3,1.3-6.1,2.8-9c1.1-2.3,0.4-5.2,0.2-7.7c-0.2-2.1-2.9-3.4-5.1-2.8
			c-0.9,0.2-1.7,0.7-2.4,1.2c-2.2,1.5-4.5,1.4-6.7,0.2c-1.6-0.9-3.4-1.3-5.1-1.8c-1-0.3-1.8-0.2-2.5,0.5c-1.5,1.3-2.9,1-4.7,0.3
			c-2.1-0.9-4.3-1.8-6.8-1.8c-2.3,0.1-3.7-1.6-4.8-3.3c-1.5-2.3-2.5-4.8-2.4-7.6c0.1-1.5,0-2.9-0.2-4.4c-0.2-2.6-2.9-4.5-5.9-4.3
			c-1.7,0.1-3.8,3.3-3.5,5.5c0.3,1.5,0.6,3.1,1.1,4.6c0.4,1.5,0.5,2.9-0.5,4.2c-0.9,1.3-0.9,3-1.5,4.5c-0.8,2.1-1.3,2.4-3.5,2
			c-2.6-0.5-4.7-1.5-4.8-4.7c0-1.3-0.7-2.6-1.8-3.6c-2.8-2.7-3.9-6.6-6.4-9.5c-0.6-0.6-0.5-1.5-0.5-2.3c0.2-4.6-1.7-8.1-5.9-10.2
			c-0.7-0.4-1.3-0.9-1.8-1.5c-1-1.1-2.2-1.8-3.7-2.1c-2-0.5-3.8-1.6-4.9-3.4c-1.5-2.6-4.2-3.7-6.3-5.6c-1.2-1.1-2.6-0.3-3.7,0.6
			c-1,0.9-1.1,3.1-0.3,4.4c0.5,0.7,1.1,1.4,1.8,2c1.2,1.1,2.2,2.2,2.8,3.8c1,2.5,3.4,3.7,5.7,4.5c1.5,0.5,2.8,1.1,4.1,2.1
			c2,1.5,4.2,2.7,6.2,4.1c0.9,0.6,1.9,1.3,2.4,2.3c0.4,0.8,0.5,1.8-0.2,2.5c-0.8,0.7-1.4,0.2-2.1-0.2c-0.5-0.3-0.9-0.7-1.4-0.8
			c-0.7-0.2-1.6-0.5-2.2,0.2c-0.6,0.7-0.4,1.4-0.1,2.2c1.1,2.8-0.2,6.6-3,8c-2,1-3.8,1.7-3.6,4.5c0.1,1.4-1.4,2.2-2.7,1.6
			c-2.8-1.3-5.4-2.8-8.1-4.2c-0.7-0.4-1.3-1-1-1.9c0.3-0.8,1-1.2,1.9-1.2c0.9,0,1.8,0.1,2.7,0.1c2,0.1,4,0,6-0.6
			c2.9-0.8,4.1-4,2.1-6.3c-2.2-2.5-4.5-5-7.8-6.3c-4.6-1.9-8.2-5.1-11.7-8.6c-0.9-0.9-1.5-2-2-3.1c-0.6-1.4-1.7-2.4-2.9-3.2
			c-1.9-1.3-2.3-1.3-4.1,0.2c-2.2,1.8-5.1,2.2-7.2,4.2c-0.7,0.7-1.7,0.1-2.6-0.1c-1.7-0.4-3.3-0.9-4.9-1.2c-3.7-0.6-5.5,1.1-5.7,4.7
			c-0.1,3.1-2.8,6.4-6.5,7.2c-2,0.4-3.2,1.4-4.1,3c-0.6,1.1-1.5,2-2.2,3c-0.9,1.2-1.8,2.3-0.9,4c0.2,0.3,0.2,1.1,0,1.3
			c-2.1,1.9-2.2,5.2-4.8,6.7c-0.7,0.4-1.4,0.8-1.9,1.4c-1.8,1.9-4,2.5-6.4,2.5c-2.1,0-4.2,0-6.2,1c-2,1-4.4,0.2-6-1.2
			c-2.3-1.9-4.7-2.7-7.8-2.4c-3.6,0.4-4-0.2-4-3.9c0-1.5,0.1-2.9-1.1-4.1c-0.9-0.8-0.8-1.8-0.3-2.8c0.4-0.7,0.8-1.4,1.1-2.1
			c1.4-2.7,2.6-5.4,2-8.7c-0.5-2.5,0.9-5.1-0.1-7.7c-0.1-0.2,0.1-0.8,0.3-0.9c2.3-1.2,4-3.5,7.2-3c3.7,0.7,7.6,0.3,11.4,0.7
			c2.7,0.2,5.4,0.7,8.1,0.6c2.7,0,3.2-0.3,3.6-2.9c0.2-1.5,0.5-2.9,1-4.3c0.7-2.1,0.5-4.1-0.7-5.9c-2.3-3.6-4.7-7-9.4-7.5
			c-1.5-0.1-3.2-2.5-3.2-3.8c0-0.8,0.6-1.2,1.3-1.4c1.5-0.5,3.1-0.7,4.7-0.8c2.4,0,4.6-0.3,6-2.9c0.8-1.6,2.7-1.5,4.3-0.9
			c1.1,0.4,2.2,1.1,3.2,0.4c1.8-1.3,4.5-1.2,5.5-3.6c0.8-1.8,2.2-2.6,3.8-3.6c2.7-1.7,5.7-3,7.6-6c1.3-2.1,3.5-3.5,5.9-4.4
			c1.9-0.8,3.7-1.7,5.5-2.5c1.7-0.7,2.4-1.9,2.1-3.7c-0.4-2.7-0.1-5.3,0.7-8c0.9-2.8,3.1-3.8,5.4-4.6c1.5-0.5,2.4,0.6,2.5,2
			c0.2,2,0.4,4-0.3,6c-1.2,3.4-0.2,4.9,3,6.4c1.3,0.6,2.3,0.1,3.2-0.4c3-1.6,5.6-1.6,7.8,1.3c0.5,0.7,1.2,0.9,2.1,0.6
			c1.7-0.6,3.4-1.1,5.1-1.8c3.2-1.3,6.5-1.9,9.9-2c4.1-0.1,6.3-1.7,7.3-5.7c0.3-1,0.4-2,0.6-3c0.5-2.9,2.1-4.5,5.1-5.1
			c2.7-0.5,3.7-1.9,3.8-4.4c0.1-1.9-1-3.4-3.2-4.3c-0.2-0.1-0.4-0.1-0.6-0.2c-5.5-1.5-7-5.7-7.6-10.7c-0.3-2.7,1-4.4,3.1-5.6
			c2.9-1.7,5.3-3.8,7.7-6c0.5-0.4,1.2-0.8,0.9-1.6c-0.3-0.7-1-0.8-1.7-0.8c-0.9,0-1.8,0-2.7-0.1c-2.8-0.4-5,0.8-6.2,3.3
			c-1.5,3.3-4.2,5.2-7.2,6.9c-0.9,0.5-1.8,1-2.7,1.5c-3.5,1.9-4,5.9-1,8.6c0.5,0.4,1.1,0.9,1.5,1.3c3.1,2.9,2.8,5.7-0.9,8
			c-0.4,0.2-0.8,0.5-1.2,0.6c-2.4,0.6-3.2,2.1-3,4.5c0.1,1.4-0.5,2.9-0.8,4.3c-0.4,2.3-1.3,4.1-4.2,3.8c-0.6-0.1-1.4,0.2-1.9,0.6
			c-2.6,2.4-6,2.4-9.2,3.2c-1.2,0.3-2.6,0.5-3.1-1.1c-0.5-1.5,0.4-2.2,1.5-3c4-2.8,4.1-3.2,0.7-6.9c-1.7-1.9-2.9-4.3-5.2-5.8
			c-1.5-1-2.6-1.1-3.9,0c-0.7,0.6-1.4,1.1-2.2,1.6c-1.8,1.4-3.8,1.9-6,1.9c-3-0.1-5-1.8-5.5-4.8c-0.2-1.2-0.6-2.4-1-3.6
			c-0.9-2.5-1.1-5-1.1-7.7c0-1.8,0.6-3.2,2.3-3.7c4.7-1.5,8.4-4.8,12.9-6.7c3.5-1.5,6.6-3.8,8.8-7.2c1.4-2.1,3.3-3.7,5.2-5.3
			c3.8-3.2,6.9-7.1,10.8-10.1c1.9-1.4,3.8-2.9,5.7-4.1c1.5-1,3.9-0.9,5.9-1.1c2-0.2,3.8-0.5,5.2-2c0.8-0.9,2.1-0.8,3.2-0.8
			C723.9,236.5,726.4,236.5,730,236.5z"/>
		<linearGradient id="XMLID_6_" gradientUnits="userSpaceOnUse" x1="720.1108" y1="825.2407" x2="678.1108" y2="-368.7593">
			<stop  offset="0" style="stop-color:#010101"/>
			<stop  offset="1" style="stop-color:#010101;stop-opacity:0"/>
		</linearGradient>
		<path id="XMLID_278_" fill="url(#XMLID_6_)" d="M857.8,521.9c0.3,4-0.3,7.7-2.1,11.4c-2.7,5.8-5.4,11.7-8.1,17.5
			c-2.8,6-6.8,11.2-12.1,15.2c-0.5,0.4-1.1,0.9-1.7,1.1c-3.9,1.3-6.1,4.5-8.7,7.4c-1.9,2.2-3.6,4.6-5.3,7c-1.4,2.1-2.9,4-4.9,5.6
			c-3.1,2.3-3.5,6.2-5.3,9.3c-0.7,1.2-1.1,2.4-1.9,3.6c-1.1,1.5-1.3,3.3-0.9,5.2c0.9,4.3,1.8,8.6,1.4,13.1c-0.2,2.9,1.2,5.6,2.8,7.8
			c2.3,3.3,2.4,6.8,1.7,10.4c-0.6,2.8-0.8,5.7-0.4,8.4c1,6.4-2,10.9-6.5,14.7c-1.5,1.3-3.2,2.5-5.1,3.3c-1.1,0.5-2.5,0.8-3.3,1.6
			c-3,3.2-6.6,5.7-9,9.4c-1.8,2.7-1.5,5.7-0.4,8.5c1.6,4.3,0.9,8.4-0.2,12.6c-0.7,2.5-2.2,4.1-4.3,5.4c-0.9,0.5-1.7,1.1-2.6,1.6
			c-2,1.3-3.2,3.1-3.8,5.4c-0.4,1.6-0.9,3.3-1.4,4.9c-0.9,3-2.1,5.8-4.8,7.9c-1.9,1.5-3.3,3.7-4.4,5.9c-1.2,2.4-2.7,4.7-4.9,6.4
			c-1.2,1-2.3,2.2-3.3,3.4c-2.6,3.2-5.8,5.3-9.8,6.7c-4.3,1.5-8.6,2.5-13.2,2.5c-0.5,0-1.1,0.1-1.6,0.4c-4,1.8-8.4,1.4-12.6,2.1
			c-1.8,0.3-3.4-0.7-5.1-1.4c-2.1-0.8-2.3-2.4-3-4.1c-0.9-2.3-1.2-4.5-1-6.9c0.1-2.1-0.2-4-1.1-5.9c-0.9-1.8-1.4-3.8-1.7-5.8
			c-0.4-2.5-1.3-4.6-3.5-6.3c-4.1-3.3-5.6-8.1-6-13.2c-0.2-2.3-0.3-4.5-1.2-6.6c-0.7-1.8-0.4-3.8-0.2-5.7c0.3-3.3-0.1-6.3-2.6-8.8
			c-2.4-2.5-3.4-5.9-4.7-9c-1-2.4-1.9-4.8-3.5-7c-0.7-0.9-1.3-2-1.2-3.1c0.4-3.6,0-7.2,1.3-10.7c1-2.7,2-5.5,2.3-8.5
			c0.3-2.4,1.2-4.3,2.9-5.9c3.4-3.3,3.7-7.1,2-11.2c-1.7-3.9-2.7-7.9-2.5-12.2c0.1-2.2-0.7-4.2-1.9-6.1c-1.1-1.9-2-3.8-2.2-6
			c-0.4-2.9-1.8-5.3-3.6-7.5c-2.4-2.9-4.6-5.9-7-8.7c-1.4-1.6-1.9-3.6-2.7-5.4c-0.6-1.3-0.1-2.5,0.4-3.6c1.1-2.4,1.6-4.9,1.4-7.6
			c-0.1-1.4,0.4-2.7,0.8-4c2.6-7.7-0.4-10.7-8.6-11.5c-1.3-0.1-2.7,0.2-4,0.4c-3,0.3-4.4-0.5-5.3-3.4c-1.7-5.1-4.2-6.8-9.6-6.6
			c-3.3,0.1-6.3,0.8-9.4,2.2c-3.9,1.8-7.8,3.4-11.9,5c-1,0.4-2,0.6-3,0.2c-2.3-0.9-4.8-1-7.2-1.6c-2.8-0.8-5.5,0.6-8.2,1.4
			c-1.7,0.5-3.4,1.3-5.1,2c-1.9,0.8-3.7,0.8-5.4-0.6c-0.2-0.1-0.4-0.2-0.6-0.4c-5.3-4.6-11.6-7.8-16.7-12.6c-1.9-1.7-3.3-3.9-4-6.2
			c-1.6-5.8-5.3-10.4-9.7-13.9c-3.8-3-5.9-6.6-7.4-10.9c-1.7-4.9-1.5-9.3,2.4-13.1c0.9-0.9,1.5-1.9,1.7-3.2c0.1-1,0.3-2,0.6-3
			c1.7-4.6,0.4-9-1.2-13.1c-1.8-4.7-1.3-8.7,1-13.2c1.8-3.6,4.1-6.7,6.1-10.1c1-1.7,1.8-3.4,2.1-5.3c0.2-1.1,0.6-2.4,1.6-2.9
			c2.9-1.2,3.9-3.9,5.2-6.4c0.6-1.1,1.3-1.9,2.4-2.2c4.2-1,6.3-4.5,8.8-7.5c2-2.3,3.2-5.1,4.1-8.1c1.5-5.3,5-9.2,9.7-11.9
			c2-1.2,3.8-2.3,4.6-4.6c0.4-1.2,1.3-2.3,2.1-3.5c1.1-1.8,3.3-2.5,4.9-1.1c1.8,1.5,3.8,1.5,5.8,1.2c4-0.5,8.1-0.6,11.9-2.4
			c1.3-0.6,2.3-1.1,3.3-2.1c1.4-1.4,3.1-2.3,5.2-2.2c2.9,0.2,5.6-0.5,8.4-1.1c3-0.6,5.9-1.6,8.9,0c0.8,0.4,1.6,0,2.3-0.4
			c2-1,4.1-1.1,6.3-0.9c2.5,0.3,4.9,0.4,7.3-0.8c1.5-0.8,3.4-0.4,5-0.2c1.7,0.2,2.8,1.7,2.6,3.4c-0.3,2-0.3,4-0.1,6.1
			c0.1,1.1-0.3,2-0.8,2.9c-1.5,3.1-0.8,5.6,2.2,7.3c2.5,1.4,5,2.5,8.1,2c1.7-0.2,3.4-0.1,5,0.5c1.9,0.7,3.4,1.7,4,3.8
			c0.6,2.2,2.1,3.1,4.3,3.1c2.8,0,5.3,1.1,7.4,2.9c0.9,0.7,1.8,1.3,3,1.3c2.7,0,3.7-1.3,3-3.9c-0.8-2.9,0.9-6.1,3.7-6.8
			c4.1-1,8.2-2.1,11.7,1.6c1,1,2.6,0.6,3.8,1.2c3.4,1.9,7.2,2.4,11,3.2c2.4,0.5,4.9,0.8,7.2,2c1.4,0.7,2.6,0.4,3.8-0.5
			c2.6-1.8,5.4-3.2,8.5-1.4c3.5,1.9,6.9,3.9,7.9,8.3c0.7,3.2,1.6,6.3,2.3,9.5c0.1,0.4,0.2,0.9,0,1.3c-0.6,1.7,0,3.1,0.9,4.4
			c2.1,3.2,3.8,6.7,5.1,10.3c1.4,3.9,3.8,7.1,6.5,10.2c2.3,2.6,3.6,6,3.8,9.3c0.4,4.9,2.6,8.8,5.7,12.3c2.1,2.4,3.1,5.2,3.5,8.3
			c0.3,3.2,1.8,6.1,5,7c4.3,1.1,6,4.8,8.8,7.4c0.9,0.8,1.7,1.8,2.5,2.8c1.3,1.5,2.6,3,2.7,5.3c0.1,3.9,4,6.5,7.9,5.8
			c5-0.9,9.7-2.9,14.6-4.1c2.8-0.7,5.8-0.7,8.5-2.2c1.3-0.7,2.7,0.8,2.6,2.4C858,520.1,857.9,521,857.8,521.9z"/>
		<linearGradient id="XMLID_7_" gradientUnits="userSpaceOnUse" x1="273.3341" y1="840.9564" x2="231.3341" y2="-353.0435">
			<stop  offset="0" style="stop-color:#010101"/>
			<stop  offset="1" style="stop-color:#010101;stop-opacity:0"/>
		</linearGradient>
		<path id="XMLID_277_" fill="url(#XMLID_7_)" d="M393.6,225.9c3.3,0,6.5-0.3,9.8-0.7c4.4-0.6,9-0.5,13.5,0.6
			c1.9,0.4,3.2,1.2,3.9,3.2c1,3,3.4,4.7,6.5,5.3c2.6,0.5,5,1.4,7.1,3.1c1.7,1.3,2.8,2.9,2.5,5.2c-0.5,3.6,1.8,5.7,4.5,7.2
			c1.5,0.8,2.5,1.9,3.1,3.4c1.1,2.7,0.8,3.8-1.5,5.6c-1.5,1.2-3,2.4-4.5,3.6c-1.9,1.5-3.4,1.3-5.1-0.3c-1.2-1.1-1.8-2.6-3.1-3.6
			c-0.8-0.6-1.5-1.1-2.4-0.4c-0.8,0.6-0.5,1.4-0.2,2.2c0.5,1,1,2,1.5,3c1.4,2.9,1,5.7-1.8,7.4c-2.3,1.5-4.3,3.3-6.5,4.9
			c-1.7,1.3-3.3,1.4-5.1,0.8c-2.6-0.9-5.1-1.8-7.6-2.9c-1.7-0.7-3.1-1.7-3.6-3.7c-0.3-1.1-0.9-2.1-1.5-3c-0.7-1-1.6-1.5-2.9-1.2
			c-3.7,0.9-7.4,0-11.1-0.3c-1.5-0.1-1.9-0.9-1.3-2.3c1.1-2.8,4.1-4.3,7.2-3.3c2.2,0.7,4.4,1,6.7,0.5c1-0.2,2.1-0.4,2.4-1.6
			c0.4-1.7,1.7-2.3,3-3c1.7-0.9,3.3-2,4.7-3.3c1.6-1.7,1.5-3-0.5-4c-1.6-0.8-2.7-1.8-3.7-3.3c-1.4-1.9-3.7-2.5-6-2.5
			c-1.8,0-3.6,0.1-5.4-0.2c-2.1-0.3-3.8,0.5-4.8,2.4c-0.7,1.4-1.7,2.4-2.7,3.4c-0.9,1-2.1,1.8-2.5,3.1c-0.3,0.8-0.9,1.3-1.6,1.7
			c-3.3,1.8-5.9,5-10.2,4.9c-1.7,0-2.3,1.2-1.8,2.9c0.5,1.6,0.7,3.3,2.3,4.4c0.7,0.4,1.2,1.1,0.8,2c-0.4,1.1-1.3,1.5-2.4,1.5
			c-1.2,0-2.2-0.5-3.2-1.1c-1.3-0.9-2.5-0.8-3.8-0.1c-1.6,0.8-3.2,1.6-4.8,2.5c-1.3,0.7-2.4,0.7-3.7-0.4c-2.4-2.1-5.4-2.8-8.5-2.4
			c-1.6,0.2-3,0.8-4.2,1.9c-2.3,2.2-5,3.8-8.3,4.1c-4.3,0.4-8,2.5-11.5,4.7c-2.3,1.4-4.4,3.1-6.6,4.8c-1.1,0.8-1.9,1.9-2.6,3.1
			c-0.9,1.5,0.5,2.5,0.8,3.8c0.3,1,0.4,2,0.6,3c0.3,1.8,1.1,2.9,3.2,3.4c3,0.7,5.7,2.2,8.1,4.5c2.7,2.6,6.2,4.6,10.3,4.6
			c1.8,0,3.6,0.3,5.3,0.9c1.6,0.6,1.9,1.1,0.8,2.4c-1.7,2.1-2.5,4.6-3.9,6.7c-1.2,1.9-0.8,3.9,0.2,5.8c1.1,1.9,2.1,2.1,4.2,1.1
			c0.9-0.4,1.8-0.9,2.7-1.4c1-0.5,2.2-1.4,2.2-2.4c0-2.8,1.9-5.1,1.8-7.9c-0.1-1.7,0.8-2.5,2.4-3.3c3.3-1.5,6.8-2.5,9.9-4.3
			c2.5-1.5,4.1-3.5,5.4-5.9c0.8-1.5,0.6-2.9-0.6-4.3c-2-2.4-1.8-3,1.1-4.4c0.7-0.3,1.4-0.7,2.1-1c2-1,3.2-2.6,3.1-4.8
			c-0.1-1.7,0.4-3.1,1.7-4.2c0.6-0.5,0.9-1.2,1.2-2c0.8-2.7,2.7-4.2,5.4-4.2c3.6,0.1,7.2,0.4,10.8,0.8c1.9,0.2,3.2,1.7,4.4,3
			c1.3,1.3,2.4,2.6,4,3.6c1.9,1.2,2,1.9,1.1,4c-0.2,0.5-0.5,1-0.8,1.5c-0.8,1.6-1.1,3.2,0.4,4.7c1.5,1.4,3.8,1.9,5.6,0.7
			c2.5-1.6,5-3,7.3-4.9c3.7-2.9,4.9-2.6,7.2,1.6c1.2,2.3,2,4.8,1.9,7.5c0,2.1-0.1,4.3,0,6.4c0.3,3.1,1.2,5.8,4.7,6.6
			c1.7,0.4,3.1,1.2,2.9,3.5c-0.1,1,1,1.4,1.7,2c1.3,1,1.5,2.2,1.3,3.9c-0.3,3.4-2.2,6.4-2.5,9.8c-0.3,3.2,0,4,2.8,5.2
			c2.7,1.2,2.8,1.2,1.4,3.9c-0.9,1.9-0.8,3.7-0.1,5.6c1.2,3.3-1.1,5.9-4.4,5.2c-2.2-0.5-4.4-0.8-6.4-2.1c-1.9-1.2-4.1-1.1-6.3-0.7
			c-2.2,0.5-4.3,0.1-6.4-0.2c-1.6-0.2-1.8-1-1.3-2.4c0.6-1.8,1.4-3.5,2.9-4.9c0.9-0.8,1.6-1.9,2.3-2.9c0.6-0.8,0.5-1.7,0-2.6
			c-0.6-1-1.5-1-2.4-0.6c-3,1.1-5.9,1-9,0.5c-2.6-0.4-5.2-0.2-7.7,0.6c-1.5,0.5-2.6,1.2-2.2,3.1c0.4,2-0.1,3.7-1.8,5.1
			c-1.5,1.4-2.5,3.2-2.7,5.3c-0.2,3,1,4.7,3.9,5.4c1.3,0.3,2.7,0.5,4,0.7c0.8,0.1,1.5,0.4,2.1,1c1.3,1.3,0.9,3.2-0.9,3.7
			c-3.4,0.8-6.8,1.6-10.2,1.9c-2,0.2-3.5,0.7-4.7,2.1c-0.7,0.8-1.5,1.7-2.4,2.4c-1.7,1.3-3.2,1.1-4-1c-0.6-1.6-1.7-2.1-3.1-2.1
			c-2.7,0.1-5.3-0.3-8,1.6c-2,1.4-4.7,1.9-6.6,3.8c-1.3,1.2-2.3,2.5-2.1,4.4c0.1,1.5-0.6,2.3-1.9,2.8c-1.9,0.7-3.7,1.8-5.7,2
			c-4.3,0.5-7.5,2.6-10.3,5.8c-2.6,2.8-5.2,5.6-7.7,8.6c-2.2,2.7-4.2,5.5-5,9.1c-0.5,2-1.2,4.2-3,5.5c-0.1,0.1-0.2,0.1-0.2,0.2
			c-1.1,3.5-4.4,4.3-7.1,5.6c-5.2,2.5-10,5.7-14.6,9.1c-5.2,3.9-7.3,9.3-5.8,15.8c0.5,2.1,1.1,4.2,1.5,6.3c0.6,3.9,0.8,7.7-2.1,10.9
			c-0.6,0.7-1.2,1.3-2.1,1.7c-1.2,0.5-2.1,0.4-2.9-0.8c-2.2-3.5-3.8-7.2-4.6-11.2c-0.2-1.3-0.2-2.7,0-4c0.5-3.6-1.7-5.8-5.4-5.4
			c-1.6,0.2-2.8,0.2-3.6-1.5c-1.1-2.1-3.1-2.5-5.3-2c-1.9,0.4-3.7,0.9-5.6,1.2c-1.9,0.3-3.3,1.5-4.2,3.1c-0.8,1.4-1.7,1.6-3.1,1.3
			c-4.3-0.7-8.7-0.7-12.9-2.3c-1.8-0.7-3.4,0.1-4.8,1c-2.9,1.8-6.1,3-9,4.6c-2.1,1.1-3.9,2.6-5.7,4.2c-1.4,1.2-1.8,2.9-1.7,4.6
			c0.1,2.4-0.7,4.4-1.7,6.5c-2.6,5.7-4.3,11.5-3.5,18c0.4,3.1,0.9,5.9,2.1,8.7c1.8,4.1,5.5,6.7,10.1,6.3c2.6-0.2,5.2-0.3,7.8-0.2
			c2.6,0.2,4.5-0.9,5.5-3.6c0.8-2.1,1.8-4.2,2-6.4c0.2-1.7,1.1-2.6,2.7-3.1c3.9-1.3,7.7-2.5,11.9-1.7c2.5,0.5,3.5,2,1.9,3.9
			c-1.4,1.7-1.6,3.5-2.1,5.5c-0.7,3.1-1.7,6.3-3.9,8.9c-1.4,1.6-1.9,3.6-2,5.6c0,2.7,1.1,3.8,3.8,4c1.1,0.1,2.2,0.1,3.4,0
			c4-0.5,7.8-0.3,11.2,2.6c1.2,1,1.9,1.8,1.8,3.3c0,0.8,0.2,1.7-0.1,2.4c-1.9,3.7-1.7,7.9-3.1,11.7c-2.5,6.8,0.9,10.8,7.5,14
			c1,0.5,2.1,0.4,3.3,0c1.2-0.3,2.7-0.7,3.5,0.4c0.8,1,0.5,2.4-0.3,3.5c-0.5,0.7-0.6,1.4-0.5,2.2c0.1,1.1-0.1,2.2-1.3,2.5
			c-1.3,0.4-2.8,0.7-3.8-0.6c-1.4-2-3.3-2.5-5.6-2.8c-1.7-0.2-3.5-0.8-4.2-2.5c-1.1-2.6-3.3-3.9-5.5-4.8c-3.4-1.3-5.1-3.7-5.5-7.1
			c-0.3-2.4-1.4-4.3-2.4-6.2c-1.1-2.2-3.1-3.5-5.7-3.8c-4.2-0.5-8-2.3-11.9-3.6c-2.4-0.8-4.3-2.8-5.9-4.9c-1.4-1.8-2.9-3.5-4.7-4.9
			c-1.5-1.2-3.2-1.8-5-1c-4.6,2.1-9,1.1-13.4-1c-2.8-1.3-5.7-2.3-8.5-3.5c-2.1-0.9-4.1-1.9-5.6-3.7c-0.1-0.1-0.1-0.2-0.2-0.2
			c-4.1-1.2-6.9-4.4-10.4-6.5c-2.9-1.8-4.9-6.1-3.4-9.3c1.7-3.5,1.3-6.5-1-9.4c-0.5-0.6-0.9-1.3-1.2-2c-1.6-4.1-4-7.6-7.6-10.2
			c-1.1-0.8-1.6-1.8-1.5-3.2c0.1-0.8,0.3-1.6-0.2-2.3c-2.4-3.2-2.6-7.5-5.5-10.4c-2-2-2.6-4.4-2.5-7.1c0.1-1.5,0-2.9,0-4.4
			c0-1.2-0.3-2.3-1.7-2.5c-1.4-0.2-2.4,0.7-2.8,2c-0.4,1.3-0.4,2.7,0,4c1.5,4.8,1.5,10,3.9,14.7c1.4,2.7,1.4,5.9,2.3,8.8
			c0.6,2,1.4,3.8,2.6,5.3c0.9,1.1,1.3,2.4,1,3.8c-0.5,1.9-2.2,2.5-3.5,1c-1.8-2-3.5-4.1-5.8-5.7c-1.7-1.2-1.5-3.2-1.7-5
			c-0.3-2.4-0.6-4.4-3.2-5.4c-1-0.4-1.8-1.4-2.5-2.2c-1.8-2-1.6-3.8,0.6-5.3c1.4-1,2-2.4,1-3.4c-4.8-5.1-3.1-11.8-4.4-17.7
			c-0.1-0.4-0.1-0.9-0.1-1.3c-0.5-4.3-2.9-7.1-7.2-8.2c-2.5-0.6-2.9-1.1-2.9-3.8c0-4.5-1.4-8.9-0.3-13.4c0.2-0.8-0.5-1.5-0.8-2.2
			c-0.9-2.1-0.8-4.3-0.6-6.6c0.3-3.3,1.9-5.7,3.8-8c0.6-0.8,1.3-1.6,1.5-2.6c0.5-3.8,3.1-6.4,5.5-9.1c3.4-3.8,6.3-8,9.2-12.1
			c1.6-2.2,2.4-4.8,3.5-7.3c1.2-2.7,0.6-5.1-1.1-7.3c-0.6-0.8-1.3-1.6-1.7-2.5c-0.8-1.8-0.9-3.4,0.4-5.3c2.2-3.2,4.1-6.7,3.3-11
			c-0.6-3.4,0-6.8,0.8-10.1c1.1-5.1-0.9-9.2-3.4-13.2c-0.8-1.3-1.9-2.5-2.6-3.9c-0.8-1.7-2.2-2.9-4.1-3.3c-3.7-0.6-7.1-2.4-10.9-2.2
			c-1.9,0.1-3.3-1.3-4.9-2.1c-2.1-1-4.1-1-6.2-0.2c-0.5,0.2-1.2,0.5-1.4,0.9c-1.3,3.5-4.8,3.4-7.5,4.5c-2.6,1-5.5,1.4-8.2,2
			c-0.5,0.1-1.2,0.2-1.7,0.1c-2.9-1-5.5,0.1-8.2,1c-10.3,3.4-20.2,7.8-30.3,11.7c-2.2,0.9-4.3,2-6.3,3.3c-1.6,1-3.3,1.3-5.2,1.2
			c-1.2,0-1.9-0.9-2.2-1.8c-0.4-1.2,0.8-1.5,1.6-1.9c4.4-2.1,8.8-4.1,13.2-6.2c1-0.5,2.1-0.9,2.9-1.8c1.3-1.5,1.1-3.1-0.7-3.1
			c-4.5-0.1-4.7-3.8-6.1-6.6c-0.2-0.4-0.2-1.4,0-1.6c2-1.3,1.8-3.8,3.1-5.5c0.7-0.9,1.6-1.6,2.8-1.8c1-0.2,2.1-0.4,2.9-0.9
			c5-3,10.7-4.2,16-6.4c0.7-0.3,1.5-0.6,2.1-1c0.6-0.4,1.5-1,1-1.9c-0.4-0.8-1.2-0.9-2.1-0.9c-0.1,0-0.2,0-0.3,0
			c-1.4,0.1-3.4,1.5-4.2-0.5c-1-2.3,1.5-6.2,4-6.7c3.4-0.7,6.9-1.3,10.3-1.8c1-0.2,1.9-0.6,2.9-0.9c2.8-0.9,4.4-2.5,4.4-5.6
			c0-1.5,0.9-2.4,2.3-3.1c1.9-0.9,3.9-1.3,5.9-1.5c1.8-0.2,3.7-0.3,5.3-1c4.4-1.9,9.1-2.7,13.3-4.9c1.4-0.7,3-1.1,4.5-1.3
			c3.6-0.4,7.2-0.7,10.8-0.9c2.4-0.1,4.7,0.1,7-1c1.4-0.7,3.1-0.4,4.7-0.1c4,0.9,7.9,1.8,12,2c1.9,0.1,3.7,0.9,5.6,1.2
			c4.1,0.6,8.2,1.4,12.4,0.7c2.1-0.4,4,0.3,5.8,1.4c1.3,0.8,2.6,1.4,4.1,1.2c2.2-0.3,4.1,1.3,6.2,1.4c0.9,0,1.7,0.4,2.7,0.1
			c6.7-1.7,13.6-1.8,20.3-3.5c1.6-0.4,3.4-0.1,5.1-0.1c1.5,0.1,2.9,0,4.3-0.7c1.5-0.8,3-0.9,4.6-0.3c2.3,0.8,4.6,0.9,7,0.9
			c4.7-0.1,9,1.2,12.8,3.7c1.6,1,3,1.4,4.8,1.2c1.9-0.2,3.6-0.1,5.2,1.1c4.7,3.8,10,3.3,15.2,1.8c3.7-1.1,7.6-1.3,11.3-2.1
			c1.9-0.4,4,0,5.4,1.5c2.2,2.4,4.9,2.6,7.8,2.2c2.1-0.3,4.3-0.4,6.4-0.4c1.7,0,3.2-0.2,4.9-0.9c2-0.9,4.4-0.4,6.6-0.2
			c0.9,0.1,1.8,0.4,2.7,0.5c3.2,0.4,5.5-1.7,4.8-4.7c-1-4.1,1.6-5.8,4.2-7.6c2-1.4,4.4-2.2,6.9-2.7c2.3-0.4,3.7,0.4,4.1,2.8
			c0.3,2.1,1,3.9,1.9,5.8c1,2,2.6,2.2,4.5,2.2c1.9,0,3.1-1.1,4.1-2.6c0.6-0.9,0.1-1.7-0.3-2.5c-1.2-2.5-0.5-4.6,1.6-6.3
			c2.1-1.7,4.3-3.3,6.4-5c1.8-1.4,4-1.5,6.1-1.7C389.3,225.7,391.4,225.9,393.6,225.9z"/>
		<linearGradient id="XMLID_8_" gradientUnits="userSpaceOnUse" x1="391.6544" y1="836.7944" x2="349.6544" y2="-357.2056">
			<stop  offset="0" style="stop-color:#010101"/>
			<stop  offset="1" style="stop-color:#010101;stop-opacity:0"/>
		</linearGradient>
		<path id="XMLID_276_" fill="url(#XMLID_8_)" d="M395,546.3c3.9-0.6,7.2,1.6,10.9,2.3c0.6,0.1,1.2,0.7,1.6,1.2
			c1.4,1.8,3.1,3.2,5,4.5c1.7,1.2,2.1,3.4,2.6,5.4c0.6,2.7,1.4,5.2,3.2,7.4c0.8,0.9,0.8,2.1,1.1,3.2c0.8,3,2.4,4.9,5.5,6.2
			c6.9,3.1,14.1,5.4,20.7,9.3c4.4,2.6,9.2,4.9,14.8,3.9c3.2-0.6,5.5,1.6,7.9,3.2c0.7,0.4,1.2,1,1.7,1.6c2.7,3.3,5.9,5.6,10.2,6.1
			c2.2,0.3,3.2,1.9,4,3.7c2.7,6.5,1.7,12.8-1.3,19c-0.2,0.4-0.4,0.8-0.7,1.2c-4.2,4.7-7.1,10.4-11,15.3c-3,3.9-2.9,8.2-1.7,12.6
			c0.5,1.9,0.9,3.7,0.3,5.6c-0.4,1-0.4,2.2-0.4,3.4c0,1.7-0.1,3.4-1.3,4.8c-0.8,1-0.9,2.1-0.7,3.2c0.5,3.2-0.7,6-2.5,8.6
			c-1.1,1.6-1.7,3.1-1.5,5c0.1,1.5-0.4,2.6-1.7,3.4c-0.4,0.2-0.9,0.5-1,0.8c-1.2,3.4-4.3,3.4-7,3.6c-3,0.2-5.7,1-8.2,2.7
			c-0.8,0.6-1.8,0.8-2.8,1.2c-0.8,0.3-1.8,0.5-2.5,1c-7,4.1-8.8,6.1-6.5,14.5c0.5,1.9,0.5,3.8,0.4,5.7c-0.1,1.3-0.6,2.4-1.6,3.2
			c-2.1,1.6-3.1,3.8-3.9,6.2c-0.3,1-0.6,2-1.6,2.5c-2.3,1.2-3.2,3.5-4,5.7c-1.3,3.6-3.1,7-4.5,10.6c-0.9,2.1-2.5,3.9-4.3,5.1
			c-3.3,2.2-4.3,5.7-5.8,9c-0.3,0.6-0.5,1.3-0.5,2c-0.2,4.6-3.4,6.5-7.1,8c-0.9,0.4-1.9,0.6-2.9,1c-2.2,0.9-3.9,2.3-4.3,4.8
			c-0.3,2.1-1.3,3.8-2.4,5.5c-0.7,1.1-1.5,2.2-1.8,3.6c-0.5,2.6-1,5.1-3,7c-0.7,0.7-1,1.8-0.6,2.8c0.8,2-0.1,3.7-1.1,5.4
			c-2.1,3.5-1.2,6.9,2.3,8.7c3.4,1.7,4,4.7,1.3,7.4c-1.7,1.7-3.1,3.2-3,5.8c0,0.3-0.2,0.6-0.4,0.9c-2,3.3-1.7,5.2,1.7,8.2
			c1.7,1.4,2.8,3,3.7,5.1c1.4,3.2,4.5,4.7,7.3,6.3c1.6,0.9,3.3,1.6,5.1,1.6c1.1,0,2,0.4,2.7,1.2c0.7,0.7,0.9,1.5,0.5,2.5
			c-0.4,0.9-1.1,1.1-1.9,1.1c-2.7,0-5.4,0.3-8-0.8c-1.7-0.7-3.6-0.6-5.3-0.8c-1.8-0.2-2.8-0.8-3.3-2.7c-0.9-3.3-4.9-5.6-8-4.4
			c-3.9,1.5-6.6-0.4-9-2.8c-2.4-2.5-4.5-5.3-5.8-8.6c-0.9-2.2-2.2-4.5-3.6-6.5c-2.2-3.2-3-6.8-3.5-10.5c-0.3-1.8-0.8-3.5-1.8-5.1
			c-1-1.5-1.5-3.3-1.6-5.1c-0.5-5.9-2.2-11.4-6.1-15.8c-2.4-2.7-3.3-6-3.9-9.2c-0.9-4.6-1.6-9.1-3.8-13.3c-0.4-0.7-0.4-1.5-0.3-2.3
			c0.3-3.7,0.5-7.4,1.4-11.1c0.8-3.2,0.8-6.3,0.2-9.4c-0.6-3.2-1.2-6.4-2.2-9.5c-1.5-5-2.3-10.1-1.1-15.4c0.4-1.6,0.3-3.2,0.1-4.7
			c-0.8-7.3-1.1-14.6-1.4-22c-0.3-5.8-0.1-11.7-1.7-17.5c-0.4-1.3-0.7-2.6-1.6-3.7c-2.9-3.3-6.4-5.8-10-8.1c-1.6-1-3.4-1.9-5.3-2.3
			c-5.7-1.2-8.3-6-11.4-10c-1.6-2-2.2-4.8-3.4-7.2c-2.7-5-5.4-9.9-9.3-14.1c-1.1-1.2-1.5-2.8-1.9-4.3c-1-3.7-2.6-7.1-5.8-9.3
			c-3.6-2.5-4.6-6.2-4.9-10.3c-0.1-1.4,0.3-2.7,1.2-3.8c0.8-0.8,1.4-1.7,2-2.7c0.8-1.5,0.9-2.9,0.1-4.5c-3-6.1-1.1-11.6,2-17
			c3.7-2.3,5.1-6.8,8.7-9.3c1.8-1.3,2.9-3.5,3.3-5.8c0.5-2.4,0.8-4.9,0.9-7.4c0.1-2.9-0.5-5.6-2-8.1c-0.8-1.3-1.8-2.7-1.6-4.4
			c0.1-0.6-0.3-1-0.9-1.3c-1.8-0.9-1.2-2.5-0.9-3.9c0.3-1.5,1.8-1,2.9-1.1c0.6,0,1.1,0,1.7,0.1c4.5,0.8,7.7-1.2,8.9-5.5
			c0.2-0.9,0.6-1.7,1.3-2.3c2.3-2,4.7-3.8,8-4c2.6-0.2,4.8-1.5,6.5-3.3c1-1,1.9-1.6,3.2-1.4c3,0.6,6.2,0.7,8.9,2.7
			c2.3,1.6,4.9,2.8,7.3,4.2c1.4,0.8,3,1,4.6,1.1c1.3,0.1,2.4,0.4,3.5,1c2.4,1.4,4.9,1.7,7.2-0.3c0.3-0.2,0.5-0.5,0.8-0.6
			c4.3-0.2,8.6-1.8,13-0.5c2.1,0.6,2.4,1.4,2,3.6c-0.2,0.8-0.6,1.5-0.7,2.3c-0.5,2.4,0.8,4.7,3.6,5.7c2.5,0.9,4.3,2.5,5.5,4.8
			C384.9,543.8,389.6,546.9,395,546.3z"/>
		<linearGradient id="XMLID_9_" gradientUnits="userSpaceOnUse" x1="1202.3134" y1="808.2787" x2="1160.3134" y2="-385.7212">
			<stop  offset="0" style="stop-color:#010101"/>
			<stop  offset="1" style="stop-color:#010101;stop-opacity:0"/>
		</linearGradient>
		<path id="XMLID_275_" fill="url(#XMLID_9_)" d="M1264.5,662c0,1.6,0.1,2.6,0,3.7c-0.2,2.4,0.8,3.7,2.9,5.1
			c2.3,1.5,4.6,3.3,5.6,6.5c1,3.4,3.5,6.3,4.9,9.6c1.8,4.2,4.7,7.7,7.5,11.3c2.1,2.8,2.2,6,1,8.6c-1.8,4.1-2.5,8.7-4.7,12.6
			c-1.4,2.4-2.8,4.9-3.9,7.5c-2.4,6.1-7.5,9.7-12.1,13.7c-3.1,2.7-5.6,5.7-8.1,9c-3,4-5.6,8.6-9.4,11.9c-2.5,2.2-5.5,4.2-9.1,4.8
			c-1.2,0.2-2.5,0.3-3.6,0.8c-6.5,3.1-13,1.2-19.5,0.1c-1.8-0.3-3.4-1.1-5.2-1.6c-3.1-1-4.1-2.2-3.8-5.4c0.1-1.4,0-2.7-0.4-4
			c-0.6-1.9-1.6-3.4-3.6-4.1c-2.1-0.8-4-2.1-6-3c-1.9-0.9-2.9-2.3-2.6-4.3c0.4-2.4-0.9-4.3-1.5-6.5c-0.4-1.4-1.6-1.9-2.8-2.3
			c-1.7-0.5-3.4-1.1-4.8-2.3c-0.9-0.9-2.3-1-3.5-0.9c-3.1,0.3-6.3,0.6-9.3,1.9c-2.8,1.2-5.8,1.9-8.9,2c-0.8,0-1.7,0-2.3,0.3
			c-3.9,1.9-8.4,2.7-11.9,5.6c-1.8,1.5-3.9,2.4-6.2,2.1c-5.8-0.8-10.8,1.9-16.1,3.3c-1.1,0.3-2.1,1.3-3.2,1.9
			c-4,2.4-10,0.4-11.9-3.9c-0.6-1.5-0.2-3,1.1-3.9c2.9-1.9,3.5-5.2,4.9-7.9c0.4-0.7,0.4-1.5,0.2-2.3c-0.7-2.6-0.7-5.2-0.5-7.8
			c0.3-4.9-0.7-9.6-2.1-14.3c-0.8-2.5-1-5,0.3-7.6c0.9-1.8,1.7-3.7,1.9-5.8c0.1-0.6,0.3-1.3,0.7-1.9c1.6-2.4,2.9-4.8,2.7-7.8
			c-0.1-1.1,0.8-1.8,1.8-2.2c3.1-1.2,6-2.6,8.3-5.1c0.2-0.2,0.6-0.5,0.9-0.5c5.4-0.8,9.8-4.7,15.3-5.3c6.2-0.6,9.7-4.6,12.1-9.7
			c1.5-3.2,3.1-5.9,6.3-7.6c0.6-0.3,1-0.9,1.5-1.4c2.5-2.9,5.4-5.4,8.9-7.2c2.4-1.2,4.6-2.7,7.1-3.6c1.2-0.5,2.1-0.4,3.1,0.4
			c1.5,1.2,3,2.4,4.8,3.2c1,0.4,1.6,0.3,2.3-0.6c1.7-2.5,3.6-4.9,5.4-7.4c2.2-3,5.4-5.1,8-7.7c1.2-1.2,3-0.8,4.5-0.1
			c3.9,2,8.1,2.5,12.5,2.8c0.8,0,1.6,0.1,2.4,0.3c2.1,0.6,3,2.4,2,4.2c-1.5,2.7-1.8,5.8-3.3,8.5c-1.3,2.4,0.2,4.5,1.9,6
			c3.2,2.8,7.1,4.8,10.8,7c2.5,1.4,3.8,0.8,4.5-2c1.2-4.7,3.4-9,4.4-13.8c0.8-3.9,2-7.9,4-11.4c0.5-0.8,0.6-2.1,1.9-2
			c1.4,0.1,2.7,0.7,3.1,2.2c0.9,3.4,2.5,6.5,3.6,9.9c0.2,0.7,0.3,1.7,0.8,2.2c3.2,3.1,3.1,7.3,4.2,11.1
			C1264.5,658.5,1264.2,660.6,1264.5,662z"/>
		<linearGradient id="XMLID_10_" gradientUnits="userSpaceOnUse" x1="556.9006" y1="830.9818" x2="514.9006" y2="-363.0183">
			<stop  offset="0" style="stop-color:#010101"/>
			<stop  offset="1" style="stop-color:#010101;stop-opacity:0"/>
		</linearGradient>
		<path id="XMLID_274_" fill="url(#XMLID_10_)" d="M472.7,257c0-6.1,3.1-9.8,8.8-10.9c0.3-0.1,0.7-0.1,1-0.1c2-0.5,2.5-1.6,1.3-3.2
			c-1.2-1.5-2-3.3-3-4.9c-1.5-2.3-1.6-4.5-0.3-7c2.1-4.1,1.4-7.6-1.4-10.6c-0.9-0.9-1.9-1.7-3.2-1.8c-4.8-0.7-9.5-2-14.4-1
			c-2.7,0.5-5.4,0.4-8-0.6c-2.8-1.1-4.7-4-4.4-6.6c0.1-1.1,0.5-1.9,1.7-2.2c2.3-0.6,4.6-1,7-1.3c3.8-0.4,7.7-0.3,11.4-1.6
			c1.2-0.4,2.5-0.7,3.2-2.2c0.6-1.4,2.3-1.3,3.6-1.5c6.2-1.2,12.4-2.5,18.4-4.2c1.5-0.4,3.1-0.7,4.7-0.6c3.4,0.2,6.8-0.2,10.1-1
			c1.6-0.4,3.1-0.5,4.7-0.4c9.2,0.5,18.2-0.2,27.3-1.9c5.8-1.1,11.7-1.2,17.5-0.5c2.4,0.3,4.7-0.4,7-0.8c7.4-1.3,14.9-1.1,22.2,0.2
			c4.3,0.8,8.6,1.7,12.8,3c3.7,1.2,7.8,1.4,11.7,1.2c2-0.1,4.1-0.1,6.1,0.2c0.8,0.1,2,0.2,2.1,1.4c0.1,1-0.8,1.3-1.6,1.5
			c-1.8,0.7-3.5,1.6-5.5,1.7c-5,0.4-9.2,2.9-13.7,4.7c-1.6,0.7-2.5,1.9-2.3,3.8c0.2,2.1-0.3,4-2,5.6c-0.6,0.6-0.7,1.4-1,2.1
			c-2,5.6-6.3,8.9-11.6,10.9c-3.1,1.2-3.7,2-3,5.2c0.6,2.5,0.7,4.8-1.3,7c-1,1.1-2,1.8-3.4,2c-3.1,0.4-5.8,1.7-8.6,3
			c-2.6,1.2-5.3,2.1-8.1,2.5c-4.2,0.6-8.4,1.9-12.7,2c-2.2,0-4,1.5-5.7,2.9c-4.2,3.5-9.1,5.4-14.4,6.4c-2.4,0.4-4.9,0.8-7.3,0.9
			c-4.5,0.2-7.1,2.5-9.1,6c-1.4,2.4-3,4.4-5.4,5.9c-0.8,0.5-1.6,1.4-2,2.3c-1.5,3.4-4.4,5.4-6.8,7.9c-2.5,2.5-4.9,2.3-7.3-0.4
			c-2-2.3-4.2-3.2-7.2-2.2c-1.5,0.5-2.6-0.2-3.3-1.5c-2.5-4.7-4.9-9.4-4.3-15C473.6,261.1,472.2,259,472.7,257z"/>
		<linearGradient id="XMLID_11_" gradientUnits="userSpaceOnUse" x1="1254.1954" y1="806.4538" x2="1212.1954" y2="-387.5462">
			<stop  offset="0" style="stop-color:#010101"/>
			<stop  offset="1" style="stop-color:#010101;stop-opacity:0"/>
		</linearGradient>
		<path id="XMLID_273_" fill="url(#XMLID_11_)" d="M1279.4,612.1c-0.2,1.4-0.2,3,0.5,4.5c0.7,1.6,1.3,3.2,3.5,3.2
			c0.7,0,1.3,0.5,1.7,1c1.5,1.8,3.1,3.6,4.5,5.5c1.2,1.6,0.4,3.1-1.6,3.3c-1.3,0.1-2.4-0.5-3.4-1.3c-1.2-0.9-2.4-1.2-3.8-0.9
			c-3.6,0.7-6-1.3-8-4c-0.8-1.1-1.4-2.3-2-3.5c-1.4-2.8-4.1-3.7-6.7-4.8c-0.9-0.4-1.8,0.1-2.5,0.8c-1,1-2.1,2-2.6,3.5
			c-0.7,2.1-2.3,3.1-4.3,3.3c-2.8,0.3-5.5,0.5-7.9-1.9c-2.4-2.5-5.5-3.5-9-2.1c-0.3,0.1-0.7,0.1-1,0.2c-2.8,0.2-3.7-0.7-2.7-3.3
			c0.6-1.6,1.1-3.2,1.4-4.9c0.8-3.8-1-7.3-4.4-9c-1.6-0.8-3.2-1.6-5-2c-1.7-0.4-3.2-1-4.7-1.9c-1.7-1.1-3.4-1.5-5.4-0.3
			c-1.7,1-2.8,0.7-3.4-1.2c-0.9-2.6-3-4.7-2.4-7.8c0.3-1.7-1.1-3.1-2.8-3.9c-0.7-0.3-1.5-0.5-2.2-0.9c-0.8-0.5-1.4-1.3-1.2-2.3
			c0.2-1,1.1-1,1.9-1c1.2,0.1,2.2-0.5,3.2-1c4.2-2.2,8.4-1.2,11.2,2.5c0.5,0.6,0.5,1.2,0.5,1.9c0.1,1,0.3,2,0.9,2.9
			c1.4,2.2,2.5,3.1,4.9,1.3c2.1-1.5,4.7-2.1,6.7-3.8c1.1-0.9,2.2-0.9,3.5-0.4c2.3,0.9,4.7,1.5,7,2.5c4.9,2.1,10,3.6,14.9,5.4
			c3,1.1,5.2,3.1,7.6,4.8c1.9,1.3,3.4,3.3,5,5.1c1.4,1.6,2.6,3.2,4.9,3.8C1278.7,605.7,1279.5,608.2,1279.4,612.1z"/>
		<linearGradient id="XMLID_12_" gradientUnits="userSpaceOnUse" x1="1141.0907" y1="810.4323" x2="1099.0907" y2="-383.5677">
			<stop  offset="0" style="stop-color:#010101"/>
			<stop  offset="1" style="stop-color:#010101;stop-opacity:0"/>
		</linearGradient>
		<path id="XMLID_272_" fill="url(#XMLID_12_)" d="M1109.6,571.7c1-2.3,1.7-5.1,4.5-6.2c3.8-1.5,7-4.1,10.8-5.7
			c2.2-1,4.2-2.6,5.5-4.8c0.6-1,1.5-2,2.6-2.6c3.5-2,6.4-4.7,8.4-8.2c0.5-0.8,1-1.5,1.6-2.2c0.8-1.1,1.7-1.2,2.5-0.1
			c2.2,3,5.2,4.9,8.4,6.6c1.3,0.7,1.5,1.8,0.7,3.2c-0.8,1.5-1.8,2.9-3.1,4c-1.9,1.6-2.2,3.6-1.5,5.8c1,2.9,1.9,5.8,3.1,8.5
			c0.5,1.3,0.6,2-0.5,2.9c-2.1,1.8-4,3.7-4.5,6.6c-0.2,1.1-1.2,1.6-2.1,2.1c-2,1.1-3,2.6-2.6,5c0.3,2-0.1,4-0.8,6
			c-0.5,1.2-0.4,2.8-2.1,3.2c-2.1,0.5-4.1,2-6.5,0.9c-1.8-0.9-3.8-1.5-5.7-2.1c-0.8-0.3-1.7-0.7-2.6-0.4c-1.8,0.5-3.6,0.4-5-1
			c-0.4-0.4-1-0.6-1.6-0.5c-2.7,0.1-3.9-1.2-4.2-3.8c-0.2-1.5-0.9-3-1.9-4.3c-1.5-2-2.3-4.2-2.2-6.6
			C1110.9,575.8,1110,573.9,1109.6,571.7z"/>
		<linearGradient id="XMLID_13_" gradientUnits="userSpaceOnUse" x1="1102.3085" y1="811.7965" x2="1060.3085" y2="-382.2035">
			<stop  offset="0" style="stop-color:#010101"/>
			<stop  offset="1" style="stop-color:#010101;stop-opacity:0"/>
		</linearGradient>
		<path id="XMLID_271_" fill="url(#XMLID_13_)" d="M1112.9,608.8c0.4-0.1,1.1,0,1.5-0.3c2.7-1.6,5.5-0.8,8.1,0.1
			c1.7,0.5,3.3,0.8,5,0.6c1.7-0.1,3,0.2,4.1,1.8c1.1,1.6,2.4,2.9,4.4,3.5c1,0.2,1.8,1,2.4,1.9c0.7,1.1,0.1,2.4-1.1,2.6
			c-2.5,0.3-5.1,1.2-7.7,0c-1-0.5-2-0.2-3-0.1c-4.3,0.3-8.5-0.1-12.5-2.2c-2-1.1-4.1-1.7-6.5-1.6c-3.2,0-6.2-0.8-8.9-2.8
			c-1.4-1-3.2-0.9-4.6-2.1c-2.2-1.8-4-4-5.5-6.3c-1.2-1.8-2.5-3.4-4.4-4.6c-1.2-0.8-2.1-2-3-3.2c-1.6-2.3-3.1-4.7-5.3-6.6
			c-0.8-0.7-1.4-1.5-1.7-2.5c-1.2-4-3.8-7.1-6-10.6c-1.3-2-2.5-4-3.3-6.3c-0.6-1.7-1.4-3.3-3.3-4.1c-1-0.4-1.4-1.5-1.7-2.4
			c-0.5-1.7-1.6-3-2.9-4.1c-2-1.8-3.9-3.7-5.9-5.6c-0.7-0.7-1.3-1.5-1.4-2.6c-0.2-2.1,0.7-3.1,2.7-2.6c1.3,0.3,2.7,0.4,4,0.6
			c2.8,0.4,5.2,1.5,6.7,4.1c0.3,0.6,0.8,1.1,1.3,1.6c7.1,5.9,13.1,13.1,20.9,18.2c3.5,2.3,5.8,5.6,7,9.7c0.6,2,1.3,3.9,3.3,5.2
			c1.6,1.1,2,3.1,1.7,5.2c-0.3,2.7-0.5,5.4,0.3,8.1c1,3.3,3.2,5.1,6.6,5.5c1.4,0.1,2.7,0.4,3.8,1.2
			C1109.6,608.6,1111.2,608.7,1112.9,608.8z"/>
		<linearGradient id="XMLID_14_" gradientUnits="userSpaceOnUse" x1="842.4998" y1="820.9355" x2="800.4998" y2="-373.0645">
			<stop  offset="0" style="stop-color:#010101"/>
			<stop  offset="1" style="stop-color:#010101;stop-opacity:0"/>
		</linearGradient>
		<path id="XMLID_270_" fill="url(#XMLID_14_)" d="M820.2,687.6c-0.1-2.1-0.2-3.9,1.1-5.4c4-4.7,4.9-10,3.5-15.8
			c-0.9-3.8,1-6.6,2.5-9.6c0.7-1.4,2.4-1.8,3.8-2c6.3-1.1,9.7-5.2,12.1-10.7c1.1-2.5,2.8-4.9,4.4-7.2c1.1-1.6,2.1-1.5,3,0.3
			c2.3,4.6,3.2,9.6,3.6,14.7c0.1,1.7-0.7,3.1-1.4,4.4c-1.4,2.5-2.4,4.9-2.9,7.8c-0.7,4.6-2.8,8.8-4.4,13.1c-1.9,5.1-4,10-5.4,15.3
			c-0.6,2.4-2,4.5-2.9,6.8c-0.3,0.7-0.9,1.3-1.7,1.6c-1.9,0.7-3.8,1.5-5.7,2c-2.8,0.6-7.3-2.4-8-5.6
			C821.1,694.1,819.9,690.8,820.2,687.6z"/>
		<linearGradient id="XMLID_15_" gradientUnits="userSpaceOnUse" x1="1208.9125" y1="808.0466" x2="1166.9125" y2="-385.9534">
			<stop  offset="0" style="stop-color:#010101"/>
			<stop  offset="1" style="stop-color:#010101;stop-opacity:0"/>
		</linearGradient>
		<path id="XMLID_269_" fill="url(#XMLID_15_)" d="M1214,397.6c0.1,4.9,2,6.4-5.5,8.3c-0.8,0.2-1.5,0.6-2.3,0.7
			c-2.3,0.4-3.9,1.5-4.9,3.6c-0.9,2.1-2.7,3-4.9,3c-1.4,0-2.7,0.4-4,0.6c-3.7,0.6-6.6,2.1-7.2,6.4c-0.2,1.2-1,2-1.9,2.7
			c-0.7,0.6-1.5,0.7-2.2,0.1c-2.4-2.1-4.7-4.1-6.3-7c-1.8-3.2-0.1-6,1.2-8.6c1-2.1,2.5-3.9,4.5-5.4c1.7-1.3,3.4-2,5.5-2
			c2.7,0,5.2-1.2,6.5-3.6c1.7-3.1,4.4-5.1,7.2-7c1.9-1.3,2.3-2.8,2.1-4.9c-0.2-2.7-1.5-5-2.5-7.3c-1-2.1-2.2-4.2-3.3-6.3
			c-0.6-1.3-1.6-2.1-2.7-3c-1.6-1.4-2.2-3-1.5-5.1c0.7-2.1,0.7-4.2-0.4-6.2c-0.6-1.2-0.8-2.5,0.3-3.5c1.1-0.9,2.3-0.5,3.5,0.1
			c2.2,1.1,4.6,1.9,6.8,3.1c2,1.1,4.1,1.9,6.4,1.7c1.6-0.1,2.6,0.5,3.2,1.9c0.3,0.8,0.9,1.5,1.5,2.2c1.4,1.7,1.4,2.4-0.2,4
			c-1.5,1.5-3.3,2.8-5,4c-2.1,1.5-2.9,3.4-1.2,5.3c3,3.6,3.7,8.2,5.9,12.1c1.2,2.1,1,4.6,1.3,6.9
			C1214.1,395.6,1214,396.6,1214,397.6z"/>
		<linearGradient id="XMLID_16_" gradientUnits="userSpaceOnUse" x1="1325.0615" y1="803.961" x2="1283.0615" y2="-390.039">
			<stop  offset="0" style="stop-color:#010101"/>
			<stop  offset="1" style="stop-color:#010101;stop-opacity:0"/>
		</linearGradient>
		<path id="XMLID_268_" fill="url(#XMLID_16_)" d="M1294,805.8c-2.4-0.4-4.6-0.5-6.7-1c-2-0.4-2.3-1.5-1-3.1
			c0.5-0.7,1.1-1.5,1.9-1.9c5.6-2.9,10.6-6.9,16.6-9c1.8-0.6,3.7-1,5.4-1.8c3.6-1.5,6.6-3.8,9.3-6.6c0.2-0.2,0.3-0.4,0.4-0.5
			c4-1.7,6.5-6,11.4-6.5c3.1-0.3,6.1-1.7,7.1-5.4c0.3-1,1.3-1.4,2.3-1.8c4.6-2.3,6.7-6.1,7-11.1c0.1-2,0.1-4.1-0.4-6.1
			c-0.4-1.5-0.1-2.9,0.7-4.2c0.8-1.4,1.6-1.5,2.6-0.3c1.6,1.9,3.7,3.6,3.7,6.6c0,0.8,0.3,1.5,0.5,2.3c0.5,2.9,1.6,5.2,5.2,4.9
			c1-0.1,2.4,0.3,2.8,1.5c0.4,1.4-0.4,2.4-1.4,3.2c-2,1.6-4,3.3-6.2,4.6c-2.2,1.3-4.1,2.8-5.7,4.7c-3.5,4.2-8.2,6.2-13.4,7.5
			c-1.7,0.4-3.1,1-4.5,2.1c-3.4,2.8-7,5.3-10.3,8.2c-1.4,1.2-3.3,2.2-5.1,2.6c-4.3,1-8,3-11.3,5.8c-2.7,2.3-5.9,3.7-9.2,5
			C1295.3,805.7,1294.5,805.7,1294,805.8z"/>
		<linearGradient id="XMLID_17_" gradientUnits="userSpaceOnUse" x1="652.7545" y1="827.61" x2="610.7545" y2="-366.39">
			<stop  offset="0" style="stop-color:#010101"/>
			<stop  offset="1" style="stop-color:#010101;stop-opacity:0"/>
		</linearGradient>
		<path id="XMLID_267_" fill="url(#XMLID_17_)" d="M628.2,290.3c4.7,0,7.6,2.7,7.5,6.8c-0.1,5,1.8,9.1,5.5,12.5
			c1.1,1,1.2,2.4,1.6,3.7c0.5,1.6,1.2,2.6,3,3.2c3.3,1.1,3.6,2.6,1.2,5.1c-0.8,0.8-1.6,1.4-1.7,2.7c-0.1,1.3-1.4,1.6-2.4,2.1
			c-3.1,1.7-6.6,1.2-9.9,1.7c-2,0.3-4,0.6-5.7,1.8c-0.5,0.3-1,0.6-1.5,0.8c-1,0.4-2,0.5-2.9-0.2c-1-0.8-0.7-1.8-0.3-2.8
			c1.1-3.1,1.9-6.2,2.4-9.5c0.2-1.7,1.2-2.6,2.8-2.9c1.3-0.3,3.1-0.1,3.1-1.9c0-1.7-0.9-3.3-2.5-4.1c-2.3-1.1-4.1-2.6-5.8-4.5
			c-1-1.2-1.5-2.4-1.5-4c0-1,0-2-0.3-3c-0.2-0.9-0.1-1.5,0.4-2.2c1-1.3,1.9-2.5,2.9-3.8C625.1,290.2,626.9,290.2,628.2,290.3z"/>
		<linearGradient id="XMLID_18_" gradientUnits="userSpaceOnUse" x1="1174.7755" y1="809.2474" x2="1132.7755" y2="-384.7526">
			<stop  offset="0" style="stop-color:#010101"/>
			<stop  offset="1" style="stop-color:#010101;stop-opacity:0"/>
		</linearGradient>
		<path id="XMLID_266_" fill="url(#XMLID_18_)" d="M1155.1,602.7c0.2-1.5,0.5-2.8,0.6-4c0.2-1.7-0.1-3.2-1.7-4.5
			c-2-1.6-2.1-3.3-0.5-5.6c0.5-0.8,1-1.5,1-2.4c0-1.6,0.4-3.1,1.2-4.5c0.5-0.9,0.6-1.9,0.5-3c-0.4-3.3,1.3-5.4,3.7-7.4
			c2.3-1.9,4.5-2.6,7.3-1.4c1.2,0.5,2.7,0.3,4,0.6c2.7,0.4,5.2,0.2,6.6-2.7c0.4-0.8,1.2-1.4,2.3-0.8c0.9,0.5,1,1.5,0.8,2.4
			c-0.4,1.7-1.1,3.2-2.4,4.4c-1.8,1.7-3.6,3.4-3.9,6.1c-0.1,1.2-1.1,1.9-2.1,2.6c-3.5,2.5-4.1,4.1-3,8.2c0.7,2.6,1.4,5.2,2.1,7.8
			c0.1,0.4,0.3,0.9,0.3,1.3c0,1.2,0.5,2.6-0.8,3.4c-1.4,0.8-2.3-0.1-3.2-0.9c-1.5-1.4-3.6-1.3-5.4-1.4c-1.2-0.1-2.3,0.9-2.7,2.2
			c-0.4,1-1.2,1.6-2.3,1.7C1155.8,604.9,1155,604.2,1155.1,602.7z"/>
		<linearGradient id="XMLID_233_" gradientUnits="userSpaceOnUse" x1="604.1639" y1="829.3192" x2="562.1639" y2="-364.6808">
			<stop  offset="0" style="stop-color:#010101"/>
			<stop  offset="1" style="stop-color:#010101;stop-opacity:0"/>
		</linearGradient>
		<path id="XMLID_265_" fill="url(#XMLID_233_)" d="M582.6,269.7c-2.9-1.4-6.5-1.1-10-1.8c-1.5-0.3-1.9-1.6-2.3-2.7
			c-0.6-1.7-1.4-3-2.8-4.1c-1.2-0.9-1.1-1.8,0-2.8c2.4-2.1,4.9-3.5,8.3-2.2c3.3,1.3,6.7,0.7,10,0.3c3-0.4,6-0.9,9.1-0.9
			c3,0,4.6,2.1,6.4,4c0.7,0.7,0.4,1.7-0.2,2.5c-0.9,1.2-2.1,2-3.5,2.5c-2.7,1-5.5,1.2-8.1,2.5c-1.1,0.6-2.3,0.9-3.4,1.6
			C585.2,269.4,584.1,269.7,582.6,269.7z"/>
		<linearGradient id="XMLID_234_" gradientUnits="userSpaceOnUse" x1="1172.9984" y1="809.3099" x2="1130.9984" y2="-384.69">
			<stop  offset="0" style="stop-color:#010101"/>
			<stop  offset="1" style="stop-color:#010101;stop-opacity:0"/>
		</linearGradient>
		<path id="XMLID_264_" fill="url(#XMLID_234_)" d="M1150.9,495.8c-0.3-3.2,0.9-6.2,1.5-9.3c0.1-0.7,0.5-1.2,1.1-1.6
			c3.7-2.5,9.5,0.3,9.7,4.7c0.1,2.8,0.2,5.5-1.8,8c-1.7,2.1-0.6,4.5,0.3,6.7c0.3,0.8,1.1,1.1,2,0.8c3.1-0.8,5.6,1.4,8.4,2
			c1.3,0.3,1.9,3.9,1.1,5.5c-0.7,1.5-2.1,1-3.3,0.9c-1.7-0.2-3.1-1.3-4.5-2.3c-1.5-1.1-3-1.8-4.9-2c-4-0.3-9.8-6.3-9.7-10.8
			C1150.9,497.7,1150.9,496.8,1150.9,495.8z"/>
		<linearGradient id="XMLID_235_" gradientUnits="userSpaceOnUse" x1="310.6759" y1="839.6429" x2="268.6759" y2="-354.3571">
			<stop  offset="0" style="stop-color:#010101"/>
			<stop  offset="1" style="stop-color:#010101;stop-opacity:0"/>
		</linearGradient>
		<path id="XMLID_263_" fill="url(#XMLID_235_)" d="M289.4,461.3c2.5-0.3,4.9,0.8,7.4,1.7c4.4,1.6,8.6,3.4,11.9,6.9
			c1.8,2,4.7,2.7,7,4.1c1.2,0.8,2.6,1.4,3.8,2.3c1.3,0.9,1.2,1.7,0.1,2.8c-1.6,1.5-3.8,1.8-6,0.6c-1.7-1-3.2-1.3-5.1-0.8
			c-2.2,0.6-2.6,0.2-3.2-2.2c-0.3-1.2-1-1.9-2-2.6c-2-1.3-4-2.5-5.8-4.1c-2.3-2.1-12.1-3.6-14.9-2.6c-1.7,0.6-3.4,1.2-5.1,1.8
			c-0.6,0.2-1.4,0.5-1.9-0.1c-0.6-0.8,0-1.5,0.4-2.1c1.2-1.8,2.8-3.2,4.7-3.8C283.4,462.3,286.2,461,289.4,461.3z"/>
		<linearGradient id="XMLID_236_" gradientUnits="userSpaceOnUse" x1="631.1589" y1="828.3696" x2="589.1589" y2="-365.6304">
			<stop  offset="0" style="stop-color:#010101"/>
			<stop  offset="1" style="stop-color:#010101;stop-opacity:0"/>
		</linearGradient>
		<path id="XMLID_262_" fill="url(#XMLID_236_)" d="M616.7,305.6c1.1,0.1,2.3,0.1,3.3,0.5c3.1,1,3.8,4.2,1.4,6.2
			c-1,0.8-1.5,1.6-1.4,2.8c0.1,1-0.3,2-0.7,3c-0.6,1.7-1.5,2.9-3.6,2.9c-2.2,0-4,1.3-5.9,2.4c-2.8,1.7-4.7,1.1-6.1-1.7
			c-0.5-1-0.7-1.9,0-2.8c1.4-1.8,1.9-3.8,1.4-6c-0.3-1.7,0.3-2.9,2.3-2.9c1.9-0.1,3.1-1.5,4.2-2.6
			C613.2,306,614.8,305.6,616.7,305.6z"/>
		<linearGradient id="XMLID_237_" gradientUnits="userSpaceOnUse" x1="343.0626" y1="838.5037" x2="301.0626" y2="-355.4963">
			<stop  offset="0" style="stop-color:#010101"/>
			<stop  offset="1" style="stop-color:#010101;stop-opacity:0"/>
		</linearGradient>
		<path id="XMLID_261_" fill="url(#XMLID_237_)" d="M330,488.8c-3.9-0.6-7.3-1.2-10.8-1.7c-0.8-0.1-1.6-0.5-1.5-1.5
			c0.1-0.7,0.8-1.1,1.5-1.2c1.3-0.2,2.7-0.4,4-0.6c1.4-0.1,1.7-0.8,1.2-2.1c-0.5-1.1-2.3-1.8-1.4-3.1c1-1.5,2.7-0.3,4.1-0.3
			c1.5,0,2.9,0.4,4.4-0.1c0.6-0.2,1.5-0.2,2,0.1c2.6,2,5.9,2.3,8.5,4c1,0.7,1.9,1.3,1.6,2.6c-0.3,1.2-1.3,1.5-2.3,1.6
			C337.3,487,333.5,488.1,330,488.8z"/>
	</g>
	<g id="XMLID_97_" opacity="0.22">
		<polygon id="XMLID_230_" fill="none" stroke="#27AAE1" stroke-width="1.0805" stroke-miterlimit="10" points="1234.5,304 
			1273,531.2 1144.9,468.2 		"/>
		<polygon id="XMLID_229_" fill="none" stroke="#27AAE1" stroke-width="1.0805" stroke-miterlimit="10" points="1144.9,468.2 
			1023,373.9 1234.5,304 1226.5,196.2 1126.8,312 1019,320 919.3,435.8 		"/>
		<polygon id="XMLID_228_" fill="none" stroke="#27AAE1" stroke-width="1.0805" stroke-miterlimit="10" points="1035,535.5 
			1144.9,468.2 919.3,435.8 		"/>
		<polygon id="XMLID_227_" fill="none" stroke="#27AAE1" stroke-width="1.0805" stroke-miterlimit="10" points="769.7,609.4 
			931.3,597.4 919.3,435.8 		"/>
		<polygon id="XMLID_226_" fill="none" stroke="#27AAE1" stroke-width="1.0805" stroke-miterlimit="10" points="1035,535.5 
			931.3,597.4 919.3,435.8 		"/>
		<polygon id="XMLID_225_" fill="none" stroke="#27AAE1" stroke-width="1.0805" stroke-miterlimit="10" points="1273,531.2 
			1150.8,635.3 1144.9,468.2 		"/>
		<polygon id="XMLID_224_" fill="none" stroke="#27AAE1" stroke-width="1.0805" stroke-miterlimit="10" points="1035,535.5 
			1150.8,635.3 1144.9,468.2 		"/>
		<polygon id="XMLID_223_" fill="none" stroke="#27AAE1" stroke-width="1.0805" stroke-miterlimit="10" points="931.3,597.4 
			1043,643.3 1035,535.5 		"/>
		<polygon id="XMLID_222_" fill="none" stroke="#27AAE1" stroke-width="1.0805" stroke-miterlimit="10" points="1150.8,635.3 
			1043,643.3 1035,535.5 		"/>
		<polyline id="XMLID_221_" fill="none" stroke="#27AAE1" stroke-width="1.0805" stroke-miterlimit="10" points="1023,373.9 
			919.3,435.8 1019,320 1023,373.9 1126.8,312 1234.5,304 		"/>
		<polygon id="XMLID_220_" fill="none" stroke="#27AAE1" stroke-width="1.0805" stroke-miterlimit="10" points="1019,320 
			919.3,435.8 911.3,328 		"/>
		<polygon id="XMLID_219_" fill="none" stroke="#27AAE1" stroke-width="1.0805" stroke-miterlimit="10" points="804.9,420.9 
			919.3,435.8 911.3,328 		"/>
		<polygon id="XMLID_218_" fill="none" stroke="#27AAE1" stroke-width="1.0805" stroke-miterlimit="10" points="707.8,505.6 
			769.7,609.4 919.3,435.8 		"/>
		<polygon id="XMLID_217_" fill="none" stroke="#27AAE1" stroke-width="1.0805" stroke-miterlimit="10" points="804.9,420.9 
			707.8,505.6 919.3,435.8 		"/>
		<polygon id="XMLID_216_" fill="none" stroke="#27AAE1" stroke-width="1.0805" stroke-miterlimit="10" points="799.5,282.1 
			804.9,420.9 911.3,328 		"/>
		<polygon id="XMLID_215_" fill="none" stroke="#27AAE1" stroke-width="1.0805" stroke-miterlimit="10" points="592,405.9 
			804.9,420.9 799.5,282.1 		"/>
		<polygon id="XMLID_214_" fill="none" stroke="#27AAE1" stroke-width="1.0805" stroke-miterlimit="10" points="707.8,505.6 
			592,405.9 804.9,420.9 		"/>
		<polygon id="XMLID_213_" fill="none" stroke="#27AAE1" stroke-width="1.0805" stroke-miterlimit="10" points="895.3,112.5 
			799.5,282.1 911.3,328 		"/>
		<polygon id="XMLID_212_" fill="none" stroke="#27AAE1" stroke-width="1.0805" stroke-miterlimit="10" points="1019,320 
			957.2,216.3 911.3,328 		"/>
		<polygon id="XMLID_211_" fill="none" stroke="#27AAE1" stroke-width="1.0805" stroke-miterlimit="10" points="1060.9,154.4 
			957.2,216.3 895.3,112.5 		"/>
		<polygon id="XMLID_210_" fill="none" stroke="#27AAE1" stroke-width="1.0805" stroke-miterlimit="10" points="1126.8,312 
			1019,320 1060.9,154.4 		"/>
		<polygon id="XMLID_209_" fill="none" stroke="#27AAE1" stroke-width="1.0805" stroke-miterlimit="10" points="737.7,178.4 
			799.5,282.1 895.3,112.5 		"/>
		<polygon id="XMLID_208_" fill="none" stroke="#27AAE1" stroke-width="1.0805" stroke-miterlimit="10" points="580,244.3 
			799.5,282.1 592,405.9 		"/>
		<polygon id="XMLID_207_" fill="none" stroke="#27AAE1" stroke-width="1.0805" stroke-miterlimit="10" points="480.3,360 
			592,405.9 580,244.3 		"/>
		<polygon id="XMLID_206_" fill="none" stroke="#27AAE1" stroke-width="1.0805" stroke-miterlimit="10" points="600,513.7 
			707.8,505.6 592,405.9 		"/>
		<polygon id="XMLID_205_" fill="none" stroke="#27AAE1" stroke-width="1.0805" stroke-miterlimit="10" points="719.8,667.3 
			769.7,609.4 707.8,505.6 		"/>
		<polygon id="XMLID_204_" fill="none" stroke="#27AAE1" stroke-width="1.0805" stroke-miterlimit="10" points="885.4,709.1 
			931.3,597.4 769.7,609.4 		"/>
		<polygon id="XMLID_203_" fill="none" stroke="#27AAE1" stroke-width="1.0805" stroke-miterlimit="10" points="997.2,755 
			1043,643.3 931.3,597.4 		"/>
		<polygon id="XMLID_202_" fill="none" stroke="#27AAE1" stroke-width="1.0805" stroke-miterlimit="10" points="1158.8,743 
			1150.8,635.3 1043,643.3 		"/>
		<polygon id="XMLID_201_" fill="none" stroke="#27AAE1" stroke-width="1.0805" stroke-miterlimit="10" points="600,513.7 
			719.8,667.3 707.8,505.6 		"/>
		<polygon id="XMLID_200_" fill="none" stroke="#27AAE1" stroke-width="1.0805" stroke-miterlimit="10" points="592,405.9 
			492.5,468.7 480.3,360 		"/>
		<polygon id="XMLID_199_" fill="none" stroke="#27AAE1" stroke-width="1.0805" stroke-miterlimit="10" points="544.6,515.8 
			600,513.7 592,405.9 		"/>
		<polygon id="XMLID_198_" fill="none" stroke="#27AAE1" stroke-width="1.0805" stroke-miterlimit="10" points="492.5,468.7 
			544.6,515.8 592,405.9 		"/>
		<polygon id="XMLID_197_" fill="none" stroke="#27AAE1" stroke-width="1.0805" stroke-miterlimit="10" points="554.2,625.4 
			544.6,515.8 600,513.7 		"/>
		<polygon id="XMLID_196_" fill="none" stroke="#27AAE1" stroke-width="1.0805" stroke-miterlimit="10" points="719.8,667.3 
			554.2,625.4 600,513.7 		"/>
		<polygon id="XMLID_195_" fill="none" stroke="#27AAE1" stroke-width="1.0805" stroke-miterlimit="10" points="781.7,771 
			885.4,709.1 769.7,609.4 		"/>
		<polygon id="XMLID_194_" fill="none" stroke="#27AAE1" stroke-width="1.0805" stroke-miterlimit="10" points="997.2,755 
			885.4,709.1 931.3,597.4 		"/>
		<polygon id="XMLID_193_" fill="none" stroke="#27AAE1" stroke-width="1.0805" stroke-miterlimit="10" points="1158.8,743 
			997.2,755 1043,643.3 		"/>
		<polygon id="XMLID_192_" fill="none" stroke="#27AAE1" stroke-width="1.0805" stroke-miterlimit="10" points="781.7,771 
			893.4,816.9 997.2,755 885.4,709.1 		"/>
		<polygon id="XMLID_191_" fill="none" stroke="#27AAE1" stroke-width="1.0805" stroke-miterlimit="10" points="719.8,667.3 
			781.7,771 769.7,609.4 		"/>
		<polygon id="XMLID_190_" fill="none" stroke="#27AAE1" stroke-width="1.0805" stroke-miterlimit="10" points="554.2,625.4 
			615.7,728.3 719.8,667.3 		"/>
		<polygon id="XMLID_189_" fill="none" stroke="#27AAE1" stroke-width="1.0805" stroke-miterlimit="10" points="544.6,515.8 
			496.3,575.5 554.2,625.4 		"/>
		<polygon id="XMLID_188_" fill="none" stroke="#27AAE1" stroke-width="1.0805" stroke-miterlimit="10" points="492.5,468.7 
			544.6,515.8 496.3,575.5 		"/>
		<polygon id="XMLID_187_" fill="none" stroke="#27AAE1" stroke-width="1.0805" stroke-miterlimit="10" points="480.3,360 
			328.6,409.2 492.5,468.7 		"/>
		<polygon id="XMLID_186_" fill="none" stroke="#27AAE1" stroke-width="1.0805" stroke-miterlimit="10" points="496.3,575.5 
			492.5,468.7 328.6,409.2 		"/>
		<polygon id="XMLID_185_" fill="none" stroke="#27AAE1" stroke-width="1.0805" stroke-miterlimit="10" points="336.5,585.7 
			496.3,575.5 328.6,409.2 		"/>
		<polygon id="XMLID_184_" fill="none" stroke="#27AAE1" stroke-width="1.0805" stroke-miterlimit="10" points="500.3,629.4 
			554.2,625.4 496.3,575.5 		"/>
		<polygon id="XMLID_183_" fill="none" stroke="#27AAE1" stroke-width="1.0805" stroke-miterlimit="10" points="615.7,728.3 
			500.3,629.4 554.2,625.4 		"/>
		<polygon id="XMLID_182_" fill="none" stroke="#27AAE1" stroke-width="1.0805" stroke-miterlimit="10" points="336.5,585.7 
			500.3,629.4 496.3,575.5 		"/>
		<polygon id="XMLID_181_" fill="none" stroke="#27AAE1" stroke-width="1.0805" stroke-miterlimit="10" points="396.5,691.3 
			500.3,629.4 336.5,585.7 		"/>
		<polygon id="XMLID_180_" fill="none" stroke="#27AAE1" stroke-width="1.0805" stroke-miterlimit="10" points="781.7,771 
			673.9,779 615.7,728.3 719.8,667.3 		"/>
		<polygon id="XMLID_179_" fill="none" stroke="#27AAE1" stroke-width="1.0805" stroke-miterlimit="10" points="481.7,742.5 
			615.7,728.3 500.3,629.4 		"/>
		<polygon id="XMLID_178_" fill="none" stroke="#27AAE1" stroke-width="1.0805" stroke-miterlimit="10" points="396.5,691.3 
			481.7,742.5 500.3,629.4 		"/>
		<polygon id="XMLID_177_" fill="none" stroke="#27AAE1" stroke-width="1.0805" stroke-miterlimit="10" points="284.8,645.4 
			396.5,691.3 336.5,585.7 		"/>
		<polygon id="XMLID_176_" fill="none" stroke="#27AAE1" stroke-width="1.0805" stroke-miterlimit="10" points="328.6,409.2 
			336.5,585.7 284.8,645.4 		"/>
		<polygon id="XMLID_175_" fill="none" stroke="#27AAE1" stroke-width="1.0805" stroke-miterlimit="10" points="222.9,541.7 
			284.8,645.4 328.6,409.2 		"/>
		<polygon id="XMLID_174_" fill="none" stroke="#27AAE1" stroke-width="1.0805" stroke-miterlimit="10" points="580,244.3 
			737.7,178.4 799.5,282.1 		"/>
		<polygon id="XMLID_173_" fill="none" stroke="#27AAE1" stroke-width="1.0805" stroke-miterlimit="10" points="522.2,194.4 
			580,244.3 737.7,178.4 		"/>
		<polygon id="XMLID_172_" fill="none" stroke="#27AAE1" stroke-width="1.0805" stroke-miterlimit="10" points="572,136.5 
			737.7,178.4 522.2,194.4 		"/>
		<polygon id="XMLID_171_" fill="none" stroke="#27AAE1" stroke-width="1.0805" stroke-miterlimit="10" points="480.3,360 
			580,244.3 522.2,194.4 		"/>
		<polygon id="XMLID_170_" fill="none" stroke="#27AAE1" stroke-width="1.0805" stroke-miterlimit="10" points="328.6,409.2 
			480.3,360 364.5,260.3 		"/>
		<polygon id="XMLID_169_" fill="none" stroke="#27AAE1" stroke-width="1.0805" stroke-miterlimit="10" points="522.2,194.4 
			480.3,360 364.5,260.3 		"/>
		<polygon id="XMLID_168_" fill="none" stroke="#27AAE1" stroke-width="1.0805" stroke-miterlimit="10" points="328.6,409.2 
			206.9,326.2 364.5,260.3 		"/>
		<polygon id="XMLID_167_" fill="none" stroke="#27AAE1" stroke-width="1.0805" stroke-miterlimit="10" points="222.9,541.7 
			328.9,405.5 206.9,326.2 		"/>
		<polygon id="XMLID_166_" fill="none" stroke="#27AAE1" stroke-width="1.0805" stroke-miterlimit="10" points="252.8,214.4 
			364.5,260.3 206.9,326.2 		"/>
		<polygon id="XMLID_165_" fill="none" stroke="#27AAE1" stroke-width="1.0805" stroke-miterlimit="10" points="522.2,194.4 
			414.4,202.4 364.5,260.3 		"/>
		<polygon id="XMLID_164_" fill="none" stroke="#27AAE1" stroke-width="1.0805" stroke-miterlimit="10" points="222.9,541.7 
			161,437.9 206.9,326.2 		"/>
		<polygon id="XMLID_163_" fill="none" stroke="#27AAE1" stroke-width="1.0805" stroke-miterlimit="10" points="1226.5,196.2 
			1126.8,312 1060.9,154.4 		"/>
		<polygon id="XMLID_162_" fill="none" stroke="#27AAE1" stroke-width="1.0805" stroke-miterlimit="10" points="481.7,742.5 
			346.7,749.2 396.5,691.3 		"/>
		<polygon id="XMLID_161_" fill="none" stroke="#27AAE1" stroke-width="1.0805" stroke-miterlimit="10" points="284.8,645.4 
			396.5,691.3 346.7,749.2 		"/>
		<polygon id="XMLID_160_" fill="none" stroke="#27AAE1" stroke-width="1.0805" stroke-miterlimit="10" points="173,599.5 
			284.8,645.4 222.9,541.7 		"/>
		<polygon id="XMLID_159_" fill="none" stroke="#27AAE1" stroke-width="1.0805" stroke-miterlimit="10" points="161,437.9 
			173,599.5 222.9,541.7 		"/>
		<polygon id="XMLID_158_" fill="none" stroke="#27AAE1" stroke-width="1.0805" stroke-miterlimit="10" points="673.9,779 
			566.2,787 615.7,728.3 		"/>
		<polygon id="XMLID_157_" fill="none" stroke="#27AAE1" stroke-width="1.0805" stroke-miterlimit="10" points="481.7,742.5 
			566.2,787 615.7,728.3 		"/>
		<polygon id="XMLID_156_" fill="none" stroke="#27AAE1" stroke-width="1.0805" stroke-miterlimit="10" points="781.7,771 
			677.9,832.9 673.9,779 		"/>
		<polygon id="XMLID_155_" fill="none" stroke="#27AAE1" stroke-width="1.0805" stroke-miterlimit="10" points="566.2,787 
			677.9,832.9 673.9,779 		"/>
		<polygon id="XMLID_154_" fill="none" stroke="#27AAE1" stroke-width="1.0805" stroke-miterlimit="10" points="346.7,749.2 
			458.4,795 566.2,787 481.7,742.5 		"/>
	</g>
	<g id="XMLID_232_">
		<g id="XMLID_96_" opacity="0.84">
			<polygon id="XMLID_20_" fill="none" stroke="#27AAE1" stroke-width="1.1647" stroke-miterlimit="10" points="145.8,623.5 
				122.6,376.2 255.3,454.1 			"/>
			<polygon id="XMLID_21_" fill="none" stroke="#27AAE1" stroke-width="1.1647" stroke-miterlimit="10" points="255.3,454.1 
				378.7,565.3 145.8,623.5 145.8,740 262.3,623.5 378.7,623.5 495.2,507 			"/>
			<polygon id="XMLID_23_" fill="none" stroke="#27AAE1" stroke-width="1.1647" stroke-miterlimit="10" points="378.7,390.6 
				255.3,454.1 495.2,507 			"/>
			<polygon id="XMLID_24_" fill="none" stroke="#27AAE1" stroke-width="1.1647" stroke-miterlimit="10" points="669.9,332.3 
				495.2,332.3 495.2,507 			"/>
			<polygon id="XMLID_25_" fill="none" stroke="#27AAE1" stroke-width="1.1647" stroke-miterlimit="10" points="378.7,390.6 
				495.2,332.3 495.2,507 			"/>
			<polygon id="XMLID_26_" fill="none" stroke="#27AAE1" stroke-width="1.1647" stroke-miterlimit="10" points="122.6,376.2 
				262.3,274.1 255.3,454.1 			"/>
			<polygon id="XMLID_27_" fill="none" stroke="#27AAE1" stroke-width="1.1647" stroke-miterlimit="10" points="378.7,390.6 
				262.3,274.1 255.3,454.1 			"/>
			<polygon id="XMLID_28_" fill="none" stroke="#27AAE1" stroke-width="1.1647" stroke-miterlimit="10" points="495.2,332.3 
				378.7,274.1 378.7,390.6 			"/>
			<polygon id="XMLID_29_" fill="none" stroke="#27AAE1" stroke-width="1.1647" stroke-miterlimit="10" points="262.3,274.1 
				378.7,274.1 378.7,390.6 			"/>
			<polyline id="XMLID_19_" fill="none" stroke="#27AAE1" stroke-width="1.1647" stroke-miterlimit="10" points="378.7,565.3 
				495.2,507 378.7,623.5 378.7,565.3 262.3,623.5 145.8,623.5 			"/>
			<polygon id="XMLID_30_" fill="none" stroke="#27AAE1" stroke-width="1.1647" stroke-miterlimit="10" points="378.7,623.5 
				495.2,507 495.2,623.5 			"/>
			<polygon id="XMLID_31_" fill="none" stroke="#27AAE1" stroke-width="1.1647" stroke-miterlimit="10" points="617,532.1 
				495.2,507 495.2,623.5 			"/>
			<polygon id="XMLID_32_" fill="none" stroke="#27AAE1" stroke-width="1.1647" stroke-miterlimit="10" points="728.2,448.8 
				669.9,332.3 495.2,507 			"/>
			<polygon id="XMLID_33_" fill="none" stroke="#27AAE1" stroke-width="1.1647" stroke-miterlimit="10" points="617,532.1 
				728.2,448.8 495.2,507 			"/>
			<polygon id="XMLID_34_" fill="none" stroke="#27AAE1" stroke-width="1.1647" stroke-miterlimit="10" points="611.7,681.7 
				617,532.1 495.2,623.5 			"/>
			<polygon id="XMLID_35_" fill="none" stroke="#27AAE1" stroke-width="1.1647" stroke-miterlimit="10" points="844.6,565.3 
				617,532.1 611.7,681.7 			"/>
			<polygon id="XMLID_36_" fill="none" stroke="#27AAE1" stroke-width="1.1647" stroke-miterlimit="10" points="728.2,448.8 
				844.6,565.3 617,532.1 			"/>
			<polygon id="XMLID_37_" fill="none" stroke="#27AAE1" stroke-width="1.1647" stroke-miterlimit="10" points="495.2,856.4 
				611.7,681.7 495.2,623.5 			"/>
			<polygon id="XMLID_38_" fill="none" stroke="#27AAE1" stroke-width="1.1647" stroke-miterlimit="10" points="378.7,623.5 
				437,740 495.2,623.5 			"/>
			<polygon id="XMLID_39_" fill="none" stroke="#27AAE1" stroke-width="1.1647" stroke-miterlimit="10" points="320.5,798.2 
				437,740 495.2,856.4 			"/>
			<polygon id="XMLID_40_" fill="none" stroke="#27AAE1" stroke-width="1.1647" stroke-miterlimit="10" points="262.3,623.5 
				378.7,623.5 320.5,798.2 			"/>
			<polygon id="XMLID_41_" fill="none" stroke="#27AAE1" stroke-width="1.1647" stroke-miterlimit="10" points="669.9,798.2 
				611.7,681.7 495.2,856.4 			"/>
			<polygon id="XMLID_42_" fill="none" stroke="#27AAE1" stroke-width="1.1647" stroke-miterlimit="10" points="844.6,740 
				611.7,681.7 844.6,565.3 			"/>
			<polygon id="XMLID_43_" fill="none" stroke="#27AAE1" stroke-width="1.1647" stroke-miterlimit="10" points="961.1,623.5 
				844.6,565.3 844.6,740 			"/>
			<polygon id="XMLID_44_" fill="none" stroke="#27AAE1" stroke-width="1.1647" stroke-miterlimit="10" points="844.6,448.8 
				728.2,448.8 844.6,565.3 			"/>
			<polygon id="XMLID_45_" fill="none" stroke="#27AAE1" stroke-width="1.1647" stroke-miterlimit="10" points="728.2,274.1 
				669.9,332.3 728.2,448.8 			"/>
			<polygon id="XMLID_46_" fill="none" stroke="#27AAE1" stroke-width="1.1647" stroke-miterlimit="10" points="553.4,215.9 
				495.2,332.3 669.9,332.3 			"/>
			<polygon id="XMLID_47_" fill="none" stroke="#27AAE1" stroke-width="1.1647" stroke-miterlimit="10" points="437,157.6 
				378.7,274.1 495.2,332.3 			"/>
			<polygon id="XMLID_48_" fill="none" stroke="#27AAE1" stroke-width="1.1647" stroke-miterlimit="10" points="262.3,157.6 
				262.3,274.1 378.7,274.1 			"/>
			<polygon id="XMLID_49_" fill="none" stroke="#27AAE1" stroke-width="1.1647" stroke-miterlimit="10" points="844.6,448.8 
				728.2,274.1 728.2,448.8 			"/>
			<polygon id="XMLID_50_" fill="none" stroke="#27AAE1" stroke-width="1.1647" stroke-miterlimit="10" points="844.6,565.3 
				956.6,505.7 961.1,623.5 			"/>
			<polygon id="XMLID_51_" fill="none" stroke="#27AAE1" stroke-width="1.1647" stroke-miterlimit="10" points="904.4,450.9 
				844.6,448.8 844.6,565.3 			"/>
			<polygon id="XMLID_52_" fill="none" stroke="#27AAE1" stroke-width="1.1647" stroke-miterlimit="10" points="956.6,505.7 
				904.4,450.9 844.6,565.3 			"/>
			<polygon id="XMLID_53_" fill="none" stroke="#27AAE1" stroke-width="1.1647" stroke-miterlimit="10" points="902.9,332.3 
				904.4,450.9 844.6,448.8 			"/>
			<polygon id="XMLID_54_" fill="none" stroke="#27AAE1" stroke-width="1.1647" stroke-miterlimit="10" points="728.2,274.1 
				902.9,332.3 844.6,448.8 			"/>
			<polygon id="XMLID_55_" fill="none" stroke="#27AAE1" stroke-width="1.1647" stroke-miterlimit="10" points="669.9,157.6 
				553.4,215.9 669.9,332.3 			"/>
			<polygon id="XMLID_56_" fill="none" stroke="#27AAE1" stroke-width="1.1647" stroke-miterlimit="10" points="437,157.6 
				553.4,215.9 495.2,332.3 			"/>
			<polygon id="XMLID_57_" fill="none" stroke="#27AAE1" stroke-width="1.1647" stroke-miterlimit="10" points="262.3,157.6 
				437,157.6 378.7,274.1 			"/>
			<polygon id="XMLID_22_" fill="none" stroke="#27AAE1" stroke-width="1.1647" stroke-miterlimit="10" points="669.9,157.6 
				553.4,99.4 437,157.6 553.4,215.9 			"/>
			<polygon id="XMLID_59_" fill="none" stroke="#27AAE1" stroke-width="1.1647" stroke-miterlimit="10" points="728.2,274.1 
				669.9,157.6 669.9,332.3 			"/>
			<polygon id="XMLID_60_" fill="none" stroke="#27AAE1" stroke-width="1.1647" stroke-miterlimit="10" points="902.9,332.3 
				844.9,216.8 728.2,274.1 			"/>
			<polygon id="XMLID_61_" fill="none" stroke="#27AAE1" stroke-width="1.1647" stroke-miterlimit="10" points="904.4,450.9 
				961.1,390.6 902.9,332.3 			"/>
			<polygon id="XMLID_62_" fill="none" stroke="#27AAE1" stroke-width="1.1647" stroke-miterlimit="10" points="956.6,505.7 
				904.4,450.9 961.1,390.6 			"/>
			<polygon id="XMLID_63_" fill="none" stroke="#27AAE1" stroke-width="1.1647" stroke-miterlimit="10" points="961.1,623.5 
				1128.1,582.7 956.6,505.7 			"/>
			<polygon id="XMLID_64_" fill="none" stroke="#27AAE1" stroke-width="1.1647" stroke-miterlimit="10" points="961.1,390.6 
				956.6,505.7 1128.1,582.7 			"/>
			<polygon id="XMLID_65_" fill="none" stroke="#27AAE1" stroke-width="1.1647" stroke-miterlimit="10" points="1133.7,392.4 
				961.1,390.6 1128.1,582.7 			"/>
			<polygon id="XMLID_66_" fill="none" stroke="#27AAE1" stroke-width="1.1647" stroke-miterlimit="10" points="961.1,332.3 
				902.9,332.3 961.1,390.6 			"/>
			<polygon id="XMLID_67_" fill="none" stroke="#27AAE1" stroke-width="1.1647" stroke-miterlimit="10" points="844.9,216.8 
				961.1,332.3 902.9,332.3 			"/>
			<polygon id="XMLID_68_" fill="none" stroke="#27AAE1" stroke-width="1.1647" stroke-miterlimit="10" points="1133.7,392.4 
				961.1,332.3 961.1,390.6 			"/>
			<polygon id="XMLID_69_" fill="none" stroke="#27AAE1" stroke-width="1.1647" stroke-miterlimit="10" points="1077.6,274.1 
				961.1,332.3 1133.7,392.4 			"/>
			<polygon id="XMLID_58_" fill="none" stroke="#27AAE1" stroke-width="1.1647" stroke-miterlimit="10" points="669.9,157.6 
				786.4,157.6 844.9,216.8 728.2,274.1 			"/>
			<polygon id="XMLID_71_" fill="none" stroke="#27AAE1" stroke-width="1.1647" stroke-miterlimit="10" points="990.2,212.2 
				844.9,216.8 961.1,332.3 			"/>
			<polygon id="XMLID_72_" fill="none" stroke="#27AAE1" stroke-width="1.1647" stroke-miterlimit="10" points="1077.6,274.1 
				990.2,212.2 961.1,332.3 			"/>
			<polygon id="XMLID_73_" fill="none" stroke="#27AAE1" stroke-width="1.1647" stroke-miterlimit="10" points="1194,332.3 
				1077.6,274.1 1133.7,392.4 			"/>
			<polygon id="XMLID_74_" fill="none" stroke="#27AAE1" stroke-width="1.1647" stroke-miterlimit="10" points="1128.1,582.7 
				1133.7,392.4 1194,332.3 			"/>
			<polygon id="XMLID_75_" fill="none" stroke="#27AAE1" stroke-width="1.1647" stroke-miterlimit="10" points="1252.3,448.8 
				1194,332.3 1128.1,582.7 			"/>
			<polygon id="XMLID_76_" fill="none" stroke="#27AAE1" stroke-width="1.1647" stroke-miterlimit="10" points="844.6,740 
				669.9,798.2 611.7,681.7 			"/>
			<polygon id="XMLID_77_" fill="none" stroke="#27AAE1" stroke-width="1.1647" stroke-miterlimit="10" points="902.9,798.2 
				844.6,740 669.9,798.2 			"/>
			<polygon id="XMLID_78_" fill="none" stroke="#27AAE1" stroke-width="1.1647" stroke-miterlimit="10" points="844.6,856.4 
				669.9,798.2 902.9,798.2 			"/>
			<polygon id="XMLID_79_" fill="none" stroke="#27AAE1" stroke-width="1.1647" stroke-miterlimit="10" points="961.1,623.5 
				844.6,740 902.9,798.2 			"/>
			<polygon id="XMLID_80_" fill="none" stroke="#27AAE1" stroke-width="1.1647" stroke-miterlimit="10" points="1128.1,582.7 
				961.1,623.5 1077.6,740 			"/>
			<polygon id="XMLID_81_" fill="none" stroke="#27AAE1" stroke-width="1.1647" stroke-miterlimit="10" points="902.9,798.2 
				961.1,623.5 1077.6,740 			"/>
			<polygon id="XMLID_82_" fill="none" stroke="#27AAE1" stroke-width="1.1647" stroke-miterlimit="10" points="1128.1,582.7 
				1252.3,681.7 1077.6,740 			"/>
			<polygon id="XMLID_83_" fill="none" stroke="#27AAE1" stroke-width="1.1647" stroke-miterlimit="10" points="1252.3,448.8 
				1127.4,586.7 1252.3,681.7 			"/>
			<polygon id="XMLID_84_" fill="none" stroke="#27AAE1" stroke-width="1.1647" stroke-miterlimit="10" points="1194,798.2 
				1077.6,740 1252.3,681.7 			"/>
			<polygon id="XMLID_85_" fill="none" stroke="#27AAE1" stroke-width="1.1647" stroke-miterlimit="10" points="902.9,798.2 
				1019.3,798.2 1077.6,740 			"/>
			<polygon id="XMLID_86_" fill="none" stroke="#27AAE1" stroke-width="1.1647" stroke-miterlimit="10" points="1252.3,448.8 
				1310.5,565.3 1252.3,681.7 			"/>
			<polygon id="XMLID_87_" fill="none" stroke="#27AAE1" stroke-width="1.1647" stroke-miterlimit="10" points="145.8,740 
				262.3,623.5 320.5,798.2 			"/>
			<polygon id="XMLID_88_" fill="none" stroke="#27AAE1" stroke-width="1.1647" stroke-miterlimit="10" points="990.2,212.2 
				1135.8,215.9 1077.6,274.1 			"/>
			<polygon id="XMLID_89_" fill="none" stroke="#27AAE1" stroke-width="1.1647" stroke-miterlimit="10" points="1194,332.3 
				1077.6,274.1 1135.8,215.9 			"/>
			<polygon id="XMLID_90_" fill="none" stroke="#27AAE1" stroke-width="1.1647" stroke-miterlimit="10" points="1310.5,390.6 
				1194,332.3 1252.3,448.8 			"/>
			<polygon id="XMLID_91_" fill="none" stroke="#27AAE1" stroke-width="1.1647" stroke-miterlimit="10" points="1310.5,565.3 
				1310.5,390.6 1252.3,448.8 			"/>
			<polygon id="XMLID_92_" fill="none" stroke="#27AAE1" stroke-width="1.1647" stroke-miterlimit="10" points="786.4,157.6 
				902.9,157.6 844.9,216.8 			"/>
			<polygon id="XMLID_93_" fill="none" stroke="#27AAE1" stroke-width="1.1647" stroke-miterlimit="10" points="990.2,212.2 
				902.9,157.6 844.9,216.8 			"/>
			<polygon id="XMLID_94_" fill="none" stroke="#27AAE1" stroke-width="1.1647" stroke-miterlimit="10" points="669.9,157.6 
				786.4,99.4 786.4,157.6 			"/>
			<polygon id="XMLID_95_" fill="none" stroke="#27AAE1" stroke-width="1.1647" stroke-miterlimit="10" points="902.9,157.6 
				786.4,99.4 786.4,157.6 			"/>
			<polygon id="XMLID_70_" fill="none" stroke="#27AAE1" stroke-width="1.1647" stroke-miterlimit="10" points="1135.8,215.9 
				1019.3,157.6 902.9,157.6 990.2,212.2 			"/>
		</g>
		<g id="XMLID_231_">
			<radialGradient id="XMLID_238_" cx="122.562" cy="376.1607" r="29.0543" gradientUnits="userSpaceOnUse">
				<stop  offset="0" style="stop-color:#FFFFFF"/>
				<stop  offset="0.1321" style="stop-color:#FFFFFF;stop-opacity:0.8679"/>
				<stop  offset="1" style="stop-color:#FFFFFF;stop-opacity:0"/>
			</radialGradient>
			<circle id="XMLID_3_" fill="url(#XMLID_238_)" cx="122.6" cy="376.2" r="29.1"/>
			<radialGradient id="XMLID_239_" cx="262.5656" cy="274.0875" r="29.0543" gradientUnits="userSpaceOnUse">
				<stop  offset="0" style="stop-color:#FFFFFF"/>
				<stop  offset="0.1321" style="stop-color:#FFFFFF;stop-opacity:0.8679"/>
				<stop  offset="1" style="stop-color:#FFFFFF;stop-opacity:0"/>
			</radialGradient>
			<circle id="XMLID_98_" fill="url(#XMLID_239_)" cx="262.6" cy="274.1" r="29.1"/>
			<radialGradient id="XMLID_240_" cx="378.7357" cy="274.0875" r="29.0543" gradientUnits="userSpaceOnUse">
				<stop  offset="0" style="stop-color:#FFFFFF"/>
				<stop  offset="0.1321" style="stop-color:#FFFFFF;stop-opacity:0.8679"/>
				<stop  offset="1" style="stop-color:#FFFFFF;stop-opacity:0"/>
			</radialGradient>
			<circle id="XMLID_99_" fill="url(#XMLID_240_)" cx="378.7" cy="274.1" r="29.1"/>
			<radialGradient id="XMLID_241_" cx="262.5656" cy="157.616" r="29.0543" gradientUnits="userSpaceOnUse">
				<stop  offset="0" style="stop-color:#FFFFFF"/>
				<stop  offset="0.1321" style="stop-color:#FFFFFF;stop-opacity:0.8679"/>
				<stop  offset="1" style="stop-color:#FFFFFF;stop-opacity:0"/>
			</radialGradient>
			<circle id="XMLID_100_" fill="url(#XMLID_241_)" cx="262.6" cy="157.6" r="29.1"/>
			<radialGradient id="XMLID_242_" cx="255.2835" cy="454.1202" r="29.0543" gradientUnits="userSpaceOnUse">
				<stop  offset="0" style="stop-color:#FFFFFF"/>
				<stop  offset="0.1321" style="stop-color:#FFFFFF;stop-opacity:0.8679"/>
				<stop  offset="1" style="stop-color:#FFFFFF;stop-opacity:0"/>
			</radialGradient>
			<circle id="XMLID_101_" fill="url(#XMLID_242_)" cx="255.3" cy="454.1" r="29.1"/>
			<radialGradient id="XMLID_243_" cx="378.7357" cy="390.5591" r="29.0543" gradientUnits="userSpaceOnUse">
				<stop  offset="0" style="stop-color:#FFFFFF"/>
				<stop  offset="0.1321" style="stop-color:#FFFFFF;stop-opacity:0.8679"/>
				<stop  offset="1" style="stop-color:#FFFFFF;stop-opacity:0"/>
			</radialGradient>
			<circle id="XMLID_102_" fill="url(#XMLID_243_)" cx="378.7" cy="390.6" r="29.1"/>
			<radialGradient id="XMLID_244_" cx="495.2073" cy="332.3233" r="29.0543" gradientUnits="userSpaceOnUse">
				<stop  offset="0" style="stop-color:#FFFFFF"/>
				<stop  offset="0.1321" style="stop-color:#FFFFFF;stop-opacity:0.8679"/>
				<stop  offset="1" style="stop-color:#FFFFFF;stop-opacity:0"/>
			</radialGradient>
			<circle id="XMLID_103_" fill="url(#XMLID_244_)" cx="495.2" cy="332.3" r="29.1"/>
			<radialGradient id="XMLID_245_" cx="436.9715" cy="157.616" r="29.0543" gradientUnits="userSpaceOnUse">
				<stop  offset="0" style="stop-color:#FFFFFF"/>
				<stop  offset="0.1321" style="stop-color:#FFFFFF;stop-opacity:0.8679"/>
				<stop  offset="1" style="stop-color:#FFFFFF;stop-opacity:0"/>
			</radialGradient>
			<circle id="XMLID_104_" fill="url(#XMLID_245_)" cx="437" cy="157.6" r="29.1"/>
			<radialGradient id="XMLID_246_" cx="553.4431" cy="215.8518" r="29.0543" gradientUnits="userSpaceOnUse">
				<stop  offset="0" style="stop-color:#FFFFFF"/>
				<stop  offset="0.1321" style="stop-color:#FFFFFF;stop-opacity:0.8679"/>
				<stop  offset="1" style="stop-color:#FFFFFF;stop-opacity:0"/>
			</radialGradient>
			<circle id="XMLID_105_" fill="url(#XMLID_246_)" cx="553.4" cy="215.9" r="29.1"/>
			<radialGradient id="XMLID_247_" cx="669.9146" cy="157.616" r="29.0543" gradientUnits="userSpaceOnUse">
				<stop  offset="0" style="stop-color:#FFFFFF"/>
				<stop  offset="0.1321" style="stop-color:#FFFFFF;stop-opacity:0.8679"/>
				<stop  offset="1" style="stop-color:#FFFFFF;stop-opacity:0"/>
			</radialGradient>
			<circle id="XMLID_106_" fill="url(#XMLID_247_)" cx="669.9" cy="157.6" r="29.1"/>
			<radialGradient id="XMLID_248_" cx="786.3861" cy="157.616" r="29.0543" gradientUnits="userSpaceOnUse">
				<stop  offset="0" style="stop-color:#FFFFFF"/>
				<stop  offset="0.1321" style="stop-color:#FFFFFF;stop-opacity:0.8679"/>
				<stop  offset="1" style="stop-color:#FFFFFF;stop-opacity:0"/>
			</radialGradient>
			<circle id="XMLID_108_" fill="url(#XMLID_248_)" cx="786.4" cy="157.6" r="29.1"/>
			<radialGradient id="XMLID_249_" cx="786.3861" cy="99.3802" r="29.0543" gradientUnits="userSpaceOnUse">
				<stop  offset="0" style="stop-color:#FFFFFF"/>
				<stop  offset="0.1321" style="stop-color:#FFFFFF;stop-opacity:0.8679"/>
				<stop  offset="1" style="stop-color:#FFFFFF;stop-opacity:0"/>
			</radialGradient>
			<circle id="XMLID_109_" fill="url(#XMLID_249_)" cx="786.4" cy="99.4" r="29.1"/>
			<radialGradient id="XMLID_250_" cx="902.9915" cy="157.616" r="29.0543" gradientUnits="userSpaceOnUse">
				<stop  offset="0" style="stop-color:#FFFFFF"/>
				<stop  offset="0.1321" style="stop-color:#FFFFFF;stop-opacity:0.8679"/>
				<stop  offset="1" style="stop-color:#FFFFFF;stop-opacity:0"/>
			</radialGradient>
			<circle id="XMLID_110_" fill="url(#XMLID_250_)" cx="903" cy="157.6" r="29.1"/>
			<radialGradient id="XMLID_251_" cx="844.8895" cy="216.8085" r="29.0543" gradientUnits="userSpaceOnUse">
				<stop  offset="0" style="stop-color:#FFFFFF"/>
				<stop  offset="0.1321" style="stop-color:#FFFFFF;stop-opacity:0.8679"/>
				<stop  offset="1" style="stop-color:#FFFFFF;stop-opacity:0"/>
			</radialGradient>
			<circle id="XMLID_111_" fill="url(#XMLID_251_)" cx="844.9" cy="216.8" r="29.1"/>
			<radialGradient id="XMLID_252_" cx="728.1503" cy="274.0875" r="29.0543" gradientUnits="userSpaceOnUse">
				<stop  offset="0" style="stop-color:#FFFFFF"/>
				<stop  offset="0.1321" style="stop-color:#FFFFFF;stop-opacity:0.8679"/>
				<stop  offset="1" style="stop-color:#FFFFFF;stop-opacity:0"/>
			</radialGradient>
			<circle id="XMLID_112_" fill="url(#XMLID_252_)" cx="728.2" cy="274.1" r="29.1"/>
			<radialGradient id="XMLID_253_" cx="669.9146" cy="333.2285" r="29.0543" gradientUnits="userSpaceOnUse">
				<stop  offset="0" style="stop-color:#FFFFFF"/>
				<stop  offset="0.1321" style="stop-color:#FFFFFF;stop-opacity:0.8679"/>
				<stop  offset="1" style="stop-color:#FFFFFF;stop-opacity:0"/>
			</radialGradient>
			<circle id="XMLID_113_" fill="url(#XMLID_253_)" cx="669.9" cy="333.2" r="29.1"/>
			<radialGradient id="XMLID_254_" cx="728.1503" cy="448.7948" r="29.0543" gradientUnits="userSpaceOnUse">
				<stop  offset="0" style="stop-color:#FFFFFF"/>
				<stop  offset="0.1321" style="stop-color:#FFFFFF;stop-opacity:0.8679"/>
				<stop  offset="1" style="stop-color:#FFFFFF;stop-opacity:0"/>
			</radialGradient>
			<circle id="XMLID_114_" fill="url(#XMLID_254_)" cx="728.2" cy="448.8" r="29.1"/>
			<radialGradient id="XMLID_255_" cx="495.2073" cy="505.7067" r="29.0543" gradientUnits="userSpaceOnUse">
				<stop  offset="0" style="stop-color:#FFFFFF"/>
				<stop  offset="0.1321" style="stop-color:#FFFFFF;stop-opacity:0.8679"/>
				<stop  offset="1" style="stop-color:#FFFFFF;stop-opacity:0"/>
			</radialGradient>
			<circle id="XMLID_115_" fill="url(#XMLID_255_)" cx="495.2" cy="505.7" r="29.1"/>
			<radialGradient id="XMLID_256_" cx="616.989" cy="534.761" r="29.0543" gradientUnits="userSpaceOnUse">
				<stop  offset="0" style="stop-color:#FFFFFF"/>
				<stop  offset="0.1321" style="stop-color:#FFFFFF;stop-opacity:0.8679"/>
				<stop  offset="1" style="stop-color:#FFFFFF;stop-opacity:0"/>
			</radialGradient>
			<circle id="XMLID_116_" fill="url(#XMLID_256_)" cx="617" cy="534.8" r="29.1"/>
			<radialGradient id="XMLID_257_" cx="495.2073" cy="623.5021" r="29.0543" gradientUnits="userSpaceOnUse">
				<stop  offset="0" style="stop-color:#FFFFFF"/>
				<stop  offset="0.1321" style="stop-color:#FFFFFF;stop-opacity:0.8679"/>
				<stop  offset="1" style="stop-color:#FFFFFF;stop-opacity:0"/>
			</radialGradient>
			<circle id="XMLID_117_" fill="url(#XMLID_257_)" cx="495.2" cy="623.5" r="29.1"/>
			<radialGradient id="XMLID_258_" cx="378.7357" cy="565.2664" r="29.0543" gradientUnits="userSpaceOnUse">
				<stop  offset="0" style="stop-color:#FFFFFF"/>
				<stop  offset="0.1321" style="stop-color:#FFFFFF;stop-opacity:0.8679"/>
				<stop  offset="1" style="stop-color:#FFFFFF;stop-opacity:0"/>
			</radialGradient>
			<circle id="XMLID_118_" fill="url(#XMLID_258_)" cx="378.7" cy="565.3" r="29.1"/>
			<radialGradient id="XMLID_259_" cx="378.7357" cy="623.5021" r="29.0543" gradientUnits="userSpaceOnUse">
				<stop  offset="0" style="stop-color:#FFFFFF"/>
				<stop  offset="0.1321" style="stop-color:#FFFFFF;stop-opacity:0.8679"/>
				<stop  offset="1" style="stop-color:#FFFFFF;stop-opacity:0"/>
			</radialGradient>
			<circle id="XMLID_119_" fill="url(#XMLID_259_)" cx="378.7" cy="623.5" r="29.1"/>
			<radialGradient id="XMLID_260_" cx="262.5656" cy="626.1012" r="29.0543" gradientUnits="userSpaceOnUse">
				<stop  offset="0" style="stop-color:#FFFFFF"/>
				<stop  offset="0.1321" style="stop-color:#FFFFFF;stop-opacity:0.8679"/>
				<stop  offset="1" style="stop-color:#FFFFFF;stop-opacity:0"/>
			</radialGradient>
			<circle id="XMLID_120_" fill="url(#XMLID_260_)" cx="262.6" cy="626.1" r="29.1"/>
			<radialGradient id="XMLID_280_" cx="145.7927" cy="623.5021" r="29.0543" gradientUnits="userSpaceOnUse">
				<stop  offset="0" style="stop-color:#FFFFFF"/>
				<stop  offset="0.1321" style="stop-color:#FFFFFF;stop-opacity:0.8679"/>
				<stop  offset="1" style="stop-color:#FFFFFF;stop-opacity:0"/>
			</radialGradient>
			<circle id="XMLID_121_" fill="url(#XMLID_280_)" cx="145.8" cy="623.5" r="29.1"/>
			<radialGradient id="XMLID_281_" cx="145.7927" cy="739.9736" r="29.0543" gradientUnits="userSpaceOnUse">
				<stop  offset="0" style="stop-color:#FFFFFF"/>
				<stop  offset="0.1321" style="stop-color:#FFFFFF;stop-opacity:0.8679"/>
				<stop  offset="1" style="stop-color:#FFFFFF;stop-opacity:0"/>
			</radialGradient>
			<circle id="XMLID_122_" fill="url(#XMLID_281_)" cx="145.8" cy="740" r="29.1"/>
			<radialGradient id="XMLID_282_" cx="320.5" cy="798.2094" r="29.0543" gradientUnits="userSpaceOnUse">
				<stop  offset="0" style="stop-color:#FFFFFF"/>
				<stop  offset="0.1321" style="stop-color:#FFFFFF;stop-opacity:0.8679"/>
				<stop  offset="1" style="stop-color:#FFFFFF;stop-opacity:0"/>
			</radialGradient>
			<circle id="XMLID_123_" fill="url(#XMLID_282_)" cx="320.5" cy="798.2" r="29.1"/>
			<radialGradient id="XMLID_283_" cx="436.9715" cy="739.9736" r="29.0543" gradientUnits="userSpaceOnUse">
				<stop  offset="0" style="stop-color:#FFFFFF"/>
				<stop  offset="0.1321" style="stop-color:#FFFFFF;stop-opacity:0.8679"/>
				<stop  offset="1" style="stop-color:#FFFFFF;stop-opacity:0"/>
			</radialGradient>
			<circle id="XMLID_124_" fill="url(#XMLID_283_)" cx="437" cy="740" r="29.1"/>
			<radialGradient id="XMLID_284_" cx="495.2073" cy="856.4452" r="29.0543" gradientUnits="userSpaceOnUse">
				<stop  offset="0" style="stop-color:#FFFFFF"/>
				<stop  offset="0.1321" style="stop-color:#FFFFFF;stop-opacity:0.8679"/>
				<stop  offset="1" style="stop-color:#FFFFFF;stop-opacity:0"/>
			</radialGradient>
			<circle id="XMLID_125_" fill="url(#XMLID_284_)" cx="495.2" cy="856.4" r="29.1"/>
			<radialGradient id="XMLID_285_" cx="611.6788" cy="681.7379" r="29.0543" gradientUnits="userSpaceOnUse">
				<stop  offset="0" style="stop-color:#FFFFFF"/>
				<stop  offset="0.1321" style="stop-color:#FFFFFF;stop-opacity:0.8679"/>
				<stop  offset="1" style="stop-color:#FFFFFF;stop-opacity:0"/>
			</radialGradient>
			<circle id="XMLID_127_" fill="url(#XMLID_285_)" cx="611.7" cy="681.7" r="29.1"/>
			<radialGradient id="XMLID_286_" cx="669.9146" cy="798.2094" r="29.0543" gradientUnits="userSpaceOnUse">
				<stop  offset="0" style="stop-color:#FFFFFF"/>
				<stop  offset="0.1321" style="stop-color:#FFFFFF;stop-opacity:0.8679"/>
				<stop  offset="1" style="stop-color:#FFFFFF;stop-opacity:0"/>
			</radialGradient>
			<circle id="XMLID_128_" fill="url(#XMLID_286_)" cx="669.9" cy="798.2" r="29.1"/>
			<radialGradient id="XMLID_287_" cx="844.6218" cy="739.9736" r="29.0543" gradientUnits="userSpaceOnUse">
				<stop  offset="0" style="stop-color:#FFFFFF"/>
				<stop  offset="0.1321" style="stop-color:#FFFFFF;stop-opacity:0.8679"/>
				<stop  offset="1" style="stop-color:#FFFFFF;stop-opacity:0"/>
			</radialGradient>
			<circle id="XMLID_129_" fill="url(#XMLID_287_)" cx="844.6" cy="740" r="29.1"/>
			<radialGradient id="XMLID_288_" cx="844.6218" cy="565.2664" r="29.0543" gradientUnits="userSpaceOnUse">
				<stop  offset="0" style="stop-color:#FFFFFF"/>
				<stop  offset="0.1321" style="stop-color:#FFFFFF;stop-opacity:0.8679"/>
				<stop  offset="1" style="stop-color:#FFFFFF;stop-opacity:0"/>
			</radialGradient>
			<circle id="XMLID_130_" fill="url(#XMLID_288_)" cx="844.6" cy="565.3" r="29.1"/>
			<radialGradient id="XMLID_289_" cx="844.6218" cy="448.1329" r="29.0543" gradientUnits="userSpaceOnUse">
				<stop  offset="0" style="stop-color:#FFFFFF"/>
				<stop  offset="0.1321" style="stop-color:#FFFFFF;stop-opacity:0.8679"/>
				<stop  offset="1" style="stop-color:#FFFFFF;stop-opacity:0"/>
			</radialGradient>
			<circle id="XMLID_131_" fill="url(#XMLID_289_)" cx="844.6" cy="448.1" r="29.1"/>
			<radialGradient id="XMLID_290_" cx="904.3693" cy="454.1202" r="29.0543" gradientUnits="userSpaceOnUse">
				<stop  offset="0" style="stop-color:#FFFFFF"/>
				<stop  offset="0.1321" style="stop-color:#FFFFFF;stop-opacity:0.8679"/>
				<stop  offset="1" style="stop-color:#FFFFFF;stop-opacity:0"/>
			</radialGradient>
			<circle id="XMLID_132_" fill="url(#XMLID_290_)" cx="904.4" cy="454.1" r="29.1"/>
			<radialGradient id="XMLID_291_" cx="956.6009" cy="507.0306" r="29.0543" gradientUnits="userSpaceOnUse">
				<stop  offset="0" style="stop-color:#FFFFFF"/>
				<stop  offset="0.1321" style="stop-color:#FFFFFF;stop-opacity:0.8679"/>
				<stop  offset="1" style="stop-color:#FFFFFF;stop-opacity:0"/>
			</radialGradient>
			<circle id="XMLID_133_" fill="url(#XMLID_291_)" cx="956.6" cy="507" r="29.1"/>
			<radialGradient id="XMLID_292_" cx="961.0934" cy="623.5021" r="29.0543" gradientUnits="userSpaceOnUse">
				<stop  offset="0" style="stop-color:#FFFFFF"/>
				<stop  offset="0.1321" style="stop-color:#FFFFFF;stop-opacity:0.8679"/>
				<stop  offset="1" style="stop-color:#FFFFFF;stop-opacity:0"/>
			</radialGradient>
			<circle id="XMLID_134_" fill="url(#XMLID_292_)" cx="961.1" cy="623.5" r="29.1"/>
			<radialGradient id="XMLID_293_" cx="902.8576" cy="798.2094" r="29.0543" gradientUnits="userSpaceOnUse">
				<stop  offset="0" style="stop-color:#FFFFFF"/>
				<stop  offset="0.1321" style="stop-color:#FFFFFF;stop-opacity:0.8679"/>
				<stop  offset="1" style="stop-color:#FFFFFF;stop-opacity:0"/>
			</radialGradient>
			<circle id="XMLID_135_" fill="url(#XMLID_293_)" cx="902.9" cy="798.2" r="29.1"/>
			<radialGradient id="XMLID_294_" cx="844.6218" cy="856.4451" r="29.0543" gradientUnits="userSpaceOnUse">
				<stop  offset="0" style="stop-color:#FFFFFF"/>
				<stop  offset="0.1321" style="stop-color:#FFFFFF;stop-opacity:0.8679"/>
				<stop  offset="1" style="stop-color:#FFFFFF;stop-opacity:0"/>
			</radialGradient>
			<circle id="XMLID_136_" fill="url(#XMLID_294_)" cx="844.6" cy="856.4" r="29.1"/>
			<radialGradient id="XMLID_295_" cx="1019.202" cy="798.2094" r="29.0543" gradientUnits="userSpaceOnUse">
				<stop  offset="0" style="stop-color:#FFFFFF"/>
				<stop  offset="0.1321" style="stop-color:#FFFFFF;stop-opacity:0.8679"/>
				<stop  offset="1" style="stop-color:#FFFFFF;stop-opacity:0"/>
			</radialGradient>
			<circle id="XMLID_137_" fill="url(#XMLID_295_)" cx="1019.2" cy="798.2" r="29.1"/>
			<radialGradient id="XMLID_296_" cx="1077.5649" cy="739.9736" r="29.0543" gradientUnits="userSpaceOnUse">
				<stop  offset="0" style="stop-color:#FFFFFF"/>
				<stop  offset="0.1321" style="stop-color:#FFFFFF;stop-opacity:0.8679"/>
				<stop  offset="1" style="stop-color:#FFFFFF;stop-opacity:0"/>
			</radialGradient>
			<circle id="XMLID_138_" fill="url(#XMLID_296_)" cx="1077.6" cy="740" r="29.1"/>
			<radialGradient id="XMLID_297_" cx="1128.0598" cy="582.7198" r="29.0543" gradientUnits="userSpaceOnUse">
				<stop  offset="0" style="stop-color:#FFFFFF"/>
				<stop  offset="0.1321" style="stop-color:#FFFFFF;stop-opacity:0.8679"/>
				<stop  offset="1" style="stop-color:#FFFFFF;stop-opacity:0"/>
			</radialGradient>
			<circle id="XMLID_139_" fill="url(#XMLID_297_)" cx="1128.1" cy="582.7" r="29.1"/>
			<radialGradient id="XMLID_298_" cx="1194.0364" cy="798.2094" r="29.0543" gradientUnits="userSpaceOnUse">
				<stop  offset="0" style="stop-color:#FFFFFF"/>
				<stop  offset="0.1321" style="stop-color:#FFFFFF;stop-opacity:0.8679"/>
				<stop  offset="1" style="stop-color:#FFFFFF;stop-opacity:0"/>
			</radialGradient>
			<circle id="XMLID_140_" fill="url(#XMLID_298_)" cx="1194" cy="798.2" r="29.1"/>
			<radialGradient id="XMLID_299_" cx="1252.2722" cy="682.9232" r="29.0543" gradientUnits="userSpaceOnUse">
				<stop  offset="0" style="stop-color:#FFFFFF"/>
				<stop  offset="0.1321" style="stop-color:#FFFFFF;stop-opacity:0.8679"/>
				<stop  offset="1" style="stop-color:#FFFFFF;stop-opacity:0"/>
			</radialGradient>
			<circle id="XMLID_141_" fill="url(#XMLID_299_)" cx="1252.3" cy="682.9" r="29.1"/>
			<radialGradient id="XMLID_300_" cx="1310.5079" cy="562.2126" r="29.0543" gradientUnits="userSpaceOnUse">
				<stop  offset="0" style="stop-color:#FFFFFF"/>
				<stop  offset="0.1321" style="stop-color:#FFFFFF;stop-opacity:0.8679"/>
				<stop  offset="1" style="stop-color:#FFFFFF;stop-opacity:0"/>
			</radialGradient>
			<circle id="XMLID_142_" fill="url(#XMLID_300_)" cx="1310.5" cy="562.2" r="29.1"/>
			<radialGradient id="XMLID_301_" cx="1252.2722" cy="448.7948" r="29.0543" gradientUnits="userSpaceOnUse">
				<stop  offset="0" style="stop-color:#FFFFFF"/>
				<stop  offset="0.1321" style="stop-color:#FFFFFF;stop-opacity:0.8679"/>
				<stop  offset="1" style="stop-color:#FFFFFF;stop-opacity:0"/>
			</radialGradient>
			<circle id="XMLID_143_" fill="url(#XMLID_301_)" cx="1252.3" cy="448.8" r="29.1"/>
			<radialGradient id="XMLID_302_" cx="1133.7227" cy="390.5591" r="29.0543" gradientUnits="userSpaceOnUse">
				<stop  offset="0" style="stop-color:#FFFFFF"/>
				<stop  offset="0.1321" style="stop-color:#FFFFFF;stop-opacity:0.8679"/>
				<stop  offset="1" style="stop-color:#FFFFFF;stop-opacity:0"/>
			</radialGradient>
			<circle id="XMLID_144_" fill="url(#XMLID_302_)" cx="1133.7" cy="390.6" r="29.1"/>
			<radialGradient id="XMLID_303_" cx="961.0934" cy="390.5591" r="29.0543" gradientUnits="userSpaceOnUse">
				<stop  offset="0" style="stop-color:#FFFFFF"/>
				<stop  offset="0.1321" style="stop-color:#FFFFFF;stop-opacity:0.8679"/>
				<stop  offset="1" style="stop-color:#FFFFFF;stop-opacity:0"/>
			</radialGradient>
			<circle id="XMLID_145_" fill="url(#XMLID_303_)" cx="961.1" cy="390.6" r="29.1"/>
			<radialGradient id="XMLID_304_" cx="902.8576" cy="332.3233" r="29.0543" gradientUnits="userSpaceOnUse">
				<stop  offset="0" style="stop-color:#FFFFFF"/>
				<stop  offset="0.1321" style="stop-color:#FFFFFF;stop-opacity:0.8679"/>
				<stop  offset="1" style="stop-color:#FFFFFF;stop-opacity:0"/>
			</radialGradient>
			<circle id="XMLID_146_" fill="url(#XMLID_304_)" cx="902.9" cy="332.3" r="29.1"/>
			<radialGradient id="XMLID_305_" cx="961.0934" cy="332.3233" r="29.0543" gradientUnits="userSpaceOnUse">
				<stop  offset="0" style="stop-color:#FFFFFF"/>
				<stop  offset="0.1321" style="stop-color:#FFFFFF;stop-opacity:0.8679"/>
				<stop  offset="1" style="stop-color:#FFFFFF;stop-opacity:0"/>
			</radialGradient>
			<circle id="XMLID_147_" fill="url(#XMLID_305_)" cx="961.1" cy="332.3" r="29.1"/>
			<radialGradient id="XMLID_306_" cx="990.1476" cy="212.1962" r="29.0543" gradientUnits="userSpaceOnUse">
				<stop  offset="0" style="stop-color:#FFFFFF"/>
				<stop  offset="0.1321" style="stop-color:#FFFFFF;stop-opacity:0.8679"/>
				<stop  offset="1" style="stop-color:#FFFFFF;stop-opacity:0"/>
			</radialGradient>
			<circle id="XMLID_148_" fill="url(#XMLID_306_)" cx="990.1" cy="212.2" r="29.1"/>
			<radialGradient id="XMLID_307_" cx="1077.5649" cy="274.0875" r="29.0543" gradientUnits="userSpaceOnUse">
				<stop  offset="0" style="stop-color:#FFFFFF"/>
				<stop  offset="0.1321" style="stop-color:#FFFFFF;stop-opacity:0.8679"/>
				<stop  offset="1" style="stop-color:#FFFFFF;stop-opacity:0"/>
			</radialGradient>
			<circle id="XMLID_149_" fill="url(#XMLID_307_)" cx="1077.6" cy="274.1" r="29.1"/>
			<radialGradient id="XMLID_308_" cx="1133.7227" cy="216.8085" r="29.0543" gradientUnits="userSpaceOnUse">
				<stop  offset="0" style="stop-color:#FFFFFF"/>
				<stop  offset="0.1321" style="stop-color:#FFFFFF;stop-opacity:0.8679"/>
				<stop  offset="1" style="stop-color:#FFFFFF;stop-opacity:0"/>
			</radialGradient>
			<circle id="XMLID_150_" fill="url(#XMLID_308_)" cx="1133.7" cy="216.8" r="29.1"/>
			<radialGradient id="XMLID_309_" cx="1194.0364" cy="333.2285" r="29.0543" gradientUnits="userSpaceOnUse">
				<stop  offset="0" style="stop-color:#FFFFFF"/>
				<stop  offset="0.1321" style="stop-color:#FFFFFF;stop-opacity:0.8679"/>
				<stop  offset="1" style="stop-color:#FFFFFF;stop-opacity:0"/>
			</radialGradient>
			<circle id="XMLID_151_" fill="url(#XMLID_309_)" cx="1194" cy="333.2" r="29.1"/>
			<radialGradient id="XMLID_310_" cx="1310.5079" cy="390.5591" r="29.0543" gradientUnits="userSpaceOnUse">
				<stop  offset="0" style="stop-color:#FFFFFF"/>
				<stop  offset="0.1321" style="stop-color:#FFFFFF;stop-opacity:0.8679"/>
				<stop  offset="1" style="stop-color:#FFFFFF;stop-opacity:0"/>
			</radialGradient>
			<circle id="XMLID_152_" fill="url(#XMLID_310_)" cx="1310.5" cy="390.6" r="29.1"/>
			<radialGradient id="XMLID_311_" cx="1019.202" cy="157.616" r="29.0543" gradientUnits="userSpaceOnUse">
				<stop  offset="0" style="stop-color:#FFFFFF"/>
				<stop  offset="0.1321" style="stop-color:#FFFFFF;stop-opacity:0.8679"/>
				<stop  offset="1" style="stop-color:#FFFFFF;stop-opacity:0"/>
			</radialGradient>
			<circle id="XMLID_153_" fill="url(#XMLID_311_)" cx="1019.2" cy="157.6" r="29.1"/>
			<radialGradient id="XMLID_312_" cx="556.0981" cy="99.3802" r="29.0543" gradientUnits="userSpaceOnUse">
				<stop  offset="0" style="stop-color:#FFFFFF"/>
				<stop  offset="0.1321" style="stop-color:#FFFFFF;stop-opacity:0.8679"/>
				<stop  offset="1" style="stop-color:#FFFFFF;stop-opacity:0"/>
			</radialGradient>
			<circle id="XMLID_107_" fill="url(#XMLID_312_)" cx="556.1" cy="99.4" r="29.1"/>
		</g>
	</g>
</g>
</svg>
